%TF.GenerationSoftware,KiCad,Pcbnew,(5.1.9)-1*%
%TF.CreationDate,2021-10-18T22:43:19-04:00*%
%TF.ProjectId,ECE477_motorcontroller,45434534-3737-45f6-9d6f-746f72636f6e,rev?*%
%TF.SameCoordinates,Original*%
%TF.FileFunction,Legend,Bot*%
%TF.FilePolarity,Positive*%
%FSLAX46Y46*%
G04 Gerber Fmt 4.6, Leading zero omitted, Abs format (unit mm)*
G04 Created by KiCad (PCBNEW (5.1.9)-1) date 2021-10-18 22:43:19*
%MOMM*%
%LPD*%
G01*
G04 APERTURE LIST*
%ADD10C,0.120000*%
%ADD11C,0.200000*%
%ADD12C,0.100000*%
%ADD13C,0.150000*%
%ADD14C,0.158750*%
%ADD15C,0.254000*%
%ADD16C,0.250000*%
G04 APERTURE END LIST*
D10*
%TO.C,R13*%
X143085000Y-86877064D02*
X143085000Y-86422936D01*
X141615000Y-86877064D02*
X141615000Y-86422936D01*
%TO.C,R2*%
X130515000Y-80302064D02*
X130515000Y-79847936D01*
X131985000Y-80302064D02*
X131985000Y-79847936D01*
%TO.C,R1*%
X133590000Y-80277064D02*
X133590000Y-79822936D01*
X135060000Y-80277064D02*
X135060000Y-79822936D01*
D11*
%TO.C,IC6*%
X157950000Y-46550000D02*
X157950000Y-43050000D01*
X157950000Y-43050000D02*
X151450000Y-43050000D01*
X151450000Y-43050000D02*
X151450000Y-46550000D01*
X151450000Y-46550000D02*
X157950000Y-46550000D01*
X157825000Y-48825000D02*
X157825000Y-47075000D01*
D12*
%TO.C,Rsense1*%
X138775000Y-52600000D02*
X138750000Y-55600000D01*
X135725000Y-52600000D02*
X135725000Y-55600000D01*
D11*
%TO.C,IC5*%
X130950000Y-53825000D02*
X130950000Y-54375000D01*
X130950000Y-54375000D02*
X133850000Y-54375000D01*
X133850000Y-54375000D02*
X133850000Y-53825000D01*
X133850000Y-53825000D02*
X130950000Y-53825000D01*
X130800000Y-52225000D02*
X130800000Y-53475000D01*
%TO.C,R13*%
D13*
X144452380Y-86007142D02*
X143976190Y-85673809D01*
X144452380Y-85435714D02*
X143452380Y-85435714D01*
X143452380Y-85816666D01*
X143500000Y-85911904D01*
X143547619Y-85959523D01*
X143642857Y-86007142D01*
X143785714Y-86007142D01*
X143880952Y-85959523D01*
X143928571Y-85911904D01*
X143976190Y-85816666D01*
X143976190Y-85435714D01*
X144452380Y-86959523D02*
X144452380Y-86388095D01*
X144452380Y-86673809D02*
X143452380Y-86673809D01*
X143595238Y-86578571D01*
X143690476Y-86483333D01*
X143738095Y-86388095D01*
X143452380Y-87292857D02*
X143452380Y-87911904D01*
X143833333Y-87578571D01*
X143833333Y-87721428D01*
X143880952Y-87816666D01*
X143928571Y-87864285D01*
X144023809Y-87911904D01*
X144261904Y-87911904D01*
X144357142Y-87864285D01*
X144404761Y-87816666D01*
X144452380Y-87721428D01*
X144452380Y-87435714D01*
X144404761Y-87340476D01*
X144357142Y-87292857D01*
%TO.C,R2*%
X133352380Y-79908333D02*
X132876190Y-79575000D01*
X133352380Y-79336904D02*
X132352380Y-79336904D01*
X132352380Y-79717857D01*
X132400000Y-79813095D01*
X132447619Y-79860714D01*
X132542857Y-79908333D01*
X132685714Y-79908333D01*
X132780952Y-79860714D01*
X132828571Y-79813095D01*
X132876190Y-79717857D01*
X132876190Y-79336904D01*
X132447619Y-80289285D02*
X132400000Y-80336904D01*
X132352380Y-80432142D01*
X132352380Y-80670238D01*
X132400000Y-80765476D01*
X132447619Y-80813095D01*
X132542857Y-80860714D01*
X132638095Y-80860714D01*
X132780952Y-80813095D01*
X133352380Y-80241666D01*
X133352380Y-80860714D01*
%TO.C,R1*%
X136427380Y-79883333D02*
X135951190Y-79550000D01*
X136427380Y-79311904D02*
X135427380Y-79311904D01*
X135427380Y-79692857D01*
X135475000Y-79788095D01*
X135522619Y-79835714D01*
X135617857Y-79883333D01*
X135760714Y-79883333D01*
X135855952Y-79835714D01*
X135903571Y-79788095D01*
X135951190Y-79692857D01*
X135951190Y-79311904D01*
X136427380Y-80835714D02*
X136427380Y-80264285D01*
X136427380Y-80550000D02*
X135427380Y-80550000D01*
X135570238Y-80454761D01*
X135665476Y-80359523D01*
X135713095Y-80264285D01*
%TO.C,IC6*%
D14*
X155569880Y-45387261D02*
X155569880Y-44752261D01*
X154904642Y-45326785D02*
X154934880Y-45357023D01*
X155025595Y-45387261D01*
X155086071Y-45387261D01*
X155176785Y-45357023D01*
X155237261Y-45296547D01*
X155267500Y-45236071D01*
X155297738Y-45115119D01*
X155297738Y-45024404D01*
X155267500Y-44903452D01*
X155237261Y-44842976D01*
X155176785Y-44782500D01*
X155086071Y-44752261D01*
X155025595Y-44752261D01*
X154934880Y-44782500D01*
X154904642Y-44812738D01*
X154360357Y-44752261D02*
X154481309Y-44752261D01*
X154541785Y-44782500D01*
X154572023Y-44812738D01*
X154632500Y-44903452D01*
X154662738Y-45024404D01*
X154662738Y-45266309D01*
X154632500Y-45326785D01*
X154602261Y-45357023D01*
X154541785Y-45387261D01*
X154420833Y-45387261D01*
X154360357Y-45357023D01*
X154330119Y-45326785D01*
X154299880Y-45266309D01*
X154299880Y-45115119D01*
X154330119Y-45054642D01*
X154360357Y-45024404D01*
X154420833Y-44994166D01*
X154541785Y-44994166D01*
X154602261Y-45024404D01*
X154632500Y-45054642D01*
X154662738Y-45115119D01*
%TO.C,Rsense1*%
D15*
X137824523Y-51197142D02*
X137219761Y-50773809D01*
X137824523Y-50471428D02*
X136554523Y-50471428D01*
X136554523Y-50955238D01*
X136615000Y-51076190D01*
X136675476Y-51136666D01*
X136796428Y-51197142D01*
X136977857Y-51197142D01*
X137098809Y-51136666D01*
X137159285Y-51076190D01*
X137219761Y-50955238D01*
X137219761Y-50471428D01*
X137764047Y-51680952D02*
X137824523Y-51801904D01*
X137824523Y-52043809D01*
X137764047Y-52164761D01*
X137643095Y-52225238D01*
X137582619Y-52225238D01*
X137461666Y-52164761D01*
X137401190Y-52043809D01*
X137401190Y-51862380D01*
X137340714Y-51741428D01*
X137219761Y-51680952D01*
X137159285Y-51680952D01*
X137038333Y-51741428D01*
X136977857Y-51862380D01*
X136977857Y-52043809D01*
X137038333Y-52164761D01*
X137764047Y-53253333D02*
X137824523Y-53132380D01*
X137824523Y-52890476D01*
X137764047Y-52769523D01*
X137643095Y-52709047D01*
X137159285Y-52709047D01*
X137038333Y-52769523D01*
X136977857Y-52890476D01*
X136977857Y-53132380D01*
X137038333Y-53253333D01*
X137159285Y-53313809D01*
X137280238Y-53313809D01*
X137401190Y-52709047D01*
X136977857Y-53858095D02*
X137824523Y-53858095D01*
X137098809Y-53858095D02*
X137038333Y-53918571D01*
X136977857Y-54039523D01*
X136977857Y-54220952D01*
X137038333Y-54341904D01*
X137159285Y-54402380D01*
X137824523Y-54402380D01*
X137764047Y-54946666D02*
X137824523Y-55067619D01*
X137824523Y-55309523D01*
X137764047Y-55430476D01*
X137643095Y-55490952D01*
X137582619Y-55490952D01*
X137461666Y-55430476D01*
X137401190Y-55309523D01*
X137401190Y-55128095D01*
X137340714Y-55007142D01*
X137219761Y-54946666D01*
X137159285Y-54946666D01*
X137038333Y-55007142D01*
X136977857Y-55128095D01*
X136977857Y-55309523D01*
X137038333Y-55430476D01*
X137764047Y-56519047D02*
X137824523Y-56398095D01*
X137824523Y-56156190D01*
X137764047Y-56035238D01*
X137643095Y-55974761D01*
X137159285Y-55974761D01*
X137038333Y-56035238D01*
X136977857Y-56156190D01*
X136977857Y-56398095D01*
X137038333Y-56519047D01*
X137159285Y-56579523D01*
X137280238Y-56579523D01*
X137401190Y-55974761D01*
X137824523Y-57789047D02*
X137824523Y-57063333D01*
X137824523Y-57426190D02*
X136554523Y-57426190D01*
X136735952Y-57305238D01*
X136856904Y-57184285D01*
X136917380Y-57063333D01*
%TO.C,IC5*%
D16*
X133376190Y-51652380D02*
X133376190Y-50652380D01*
X132328571Y-51557142D02*
X132376190Y-51604761D01*
X132519047Y-51652380D01*
X132614285Y-51652380D01*
X132757142Y-51604761D01*
X132852380Y-51509523D01*
X132900000Y-51414285D01*
X132947619Y-51223809D01*
X132947619Y-51080952D01*
X132900000Y-50890476D01*
X132852380Y-50795238D01*
X132757142Y-50700000D01*
X132614285Y-50652380D01*
X132519047Y-50652380D01*
X132376190Y-50700000D01*
X132328571Y-50747619D01*
X131423809Y-50652380D02*
X131900000Y-50652380D01*
X131947619Y-51128571D01*
X131900000Y-51080952D01*
X131804761Y-51033333D01*
X131566666Y-51033333D01*
X131471428Y-51080952D01*
X131423809Y-51128571D01*
X131376190Y-51223809D01*
X131376190Y-51461904D01*
X131423809Y-51557142D01*
X131471428Y-51604761D01*
X131566666Y-51652380D01*
X131804761Y-51652380D01*
X131900000Y-51604761D01*
X131947619Y-51557142D01*
%TO.C,C5*%
D14*
X158705833Y-68501785D02*
X158736071Y-68532023D01*
X158826785Y-68562261D01*
X158887261Y-68562261D01*
X158977976Y-68532023D01*
X159038452Y-68471547D01*
X159068690Y-68411071D01*
X159098928Y-68290119D01*
X159098928Y-68199404D01*
X159068690Y-68078452D01*
X159038452Y-68017976D01*
X158977976Y-67957500D01*
X158887261Y-67927261D01*
X158826785Y-67927261D01*
X158736071Y-67957500D01*
X158705833Y-67987738D01*
X158131309Y-67927261D02*
X158433690Y-67927261D01*
X158463928Y-68229642D01*
X158433690Y-68199404D01*
X158373214Y-68169166D01*
X158222023Y-68169166D01*
X158161547Y-68199404D01*
X158131309Y-68229642D01*
X158101071Y-68290119D01*
X158101071Y-68441309D01*
X158131309Y-68501785D01*
X158161547Y-68532023D01*
X158222023Y-68562261D01*
X158373214Y-68562261D01*
X158433690Y-68532023D01*
X158463928Y-68501785D01*
%TO.C,C10*%
X149340785Y-68171785D02*
X149371023Y-68141547D01*
X149401261Y-68050833D01*
X149401261Y-67990357D01*
X149371023Y-67899642D01*
X149310547Y-67839166D01*
X149250071Y-67808928D01*
X149129119Y-67778690D01*
X149038404Y-67778690D01*
X148917452Y-67808928D01*
X148856976Y-67839166D01*
X148796500Y-67899642D01*
X148766261Y-67990357D01*
X148766261Y-68050833D01*
X148796500Y-68141547D01*
X148826738Y-68171785D01*
X149401261Y-68776547D02*
X149401261Y-68413690D01*
X149401261Y-68595119D02*
X148766261Y-68595119D01*
X148856976Y-68534642D01*
X148917452Y-68474166D01*
X148947690Y-68413690D01*
X148766261Y-69169642D02*
X148766261Y-69230119D01*
X148796500Y-69290595D01*
X148826738Y-69320833D01*
X148887214Y-69351071D01*
X149008166Y-69381309D01*
X149159357Y-69381309D01*
X149280309Y-69351071D01*
X149340785Y-69320833D01*
X149371023Y-69290595D01*
X149401261Y-69230119D01*
X149401261Y-69169642D01*
X149371023Y-69109166D01*
X149340785Y-69078928D01*
X149280309Y-69048690D01*
X149159357Y-69018452D01*
X149008166Y-69018452D01*
X148887214Y-69048690D01*
X148826738Y-69078928D01*
X148796500Y-69109166D01*
X148766261Y-69169642D01*
%TO.C,C6*%
X134017833Y-67612785D02*
X134048071Y-67643023D01*
X134138785Y-67673261D01*
X134199261Y-67673261D01*
X134289976Y-67643023D01*
X134350452Y-67582547D01*
X134380690Y-67522071D01*
X134410928Y-67401119D01*
X134410928Y-67310404D01*
X134380690Y-67189452D01*
X134350452Y-67128976D01*
X134289976Y-67068500D01*
X134199261Y-67038261D01*
X134138785Y-67038261D01*
X134048071Y-67068500D01*
X134017833Y-67098738D01*
X133473547Y-67038261D02*
X133594500Y-67038261D01*
X133654976Y-67068500D01*
X133685214Y-67098738D01*
X133745690Y-67189452D01*
X133775928Y-67310404D01*
X133775928Y-67552309D01*
X133745690Y-67612785D01*
X133715452Y-67643023D01*
X133654976Y-67673261D01*
X133534023Y-67673261D01*
X133473547Y-67643023D01*
X133443309Y-67612785D01*
X133413071Y-67552309D01*
X133413071Y-67401119D01*
X133443309Y-67340642D01*
X133473547Y-67310404D01*
X133534023Y-67280166D01*
X133654976Y-67280166D01*
X133715452Y-67310404D01*
X133745690Y-67340642D01*
X133775928Y-67401119D01*
%TO.C,C4*%
X127214785Y-70972166D02*
X127245023Y-70941928D01*
X127275261Y-70851214D01*
X127275261Y-70790738D01*
X127245023Y-70700023D01*
X127184547Y-70639547D01*
X127124071Y-70609309D01*
X127003119Y-70579071D01*
X126912404Y-70579071D01*
X126791452Y-70609309D01*
X126730976Y-70639547D01*
X126670500Y-70700023D01*
X126640261Y-70790738D01*
X126640261Y-70851214D01*
X126670500Y-70941928D01*
X126700738Y-70972166D01*
X126851928Y-71516452D02*
X127275261Y-71516452D01*
X126610023Y-71365261D02*
X127063595Y-71214071D01*
X127063595Y-71607166D01*
%TD*%
M02*
