%TF.GenerationSoftware,KiCad,Pcbnew,(5.1.9)-1*%
%TF.CreationDate,2021-10-18T22:43:19-04:00*%
%TF.ProjectId,ECE477_motorcontroller,45434534-3737-45f6-9d6f-746f72636f6e,rev?*%
%TF.SameCoordinates,Original*%
%TF.FileFunction,Paste,Bot*%
%TF.FilePolarity,Positive*%
%FSLAX46Y46*%
G04 Gerber Fmt 4.6, Leading zero omitted, Abs format (unit mm)*
G04 Created by KiCad (PCBNEW (5.1.9)-1) date 2021-10-18 22:43:19*
%MOMM*%
%LPD*%
G01*
G04 APERTURE LIST*
%ADD10R,3.200000X1.750000*%
%ADD11R,0.950000X1.750000*%
%ADD12R,3.400000X1.800000*%
%ADD13R,0.600000X1.250000*%
%ADD14R,0.620000X0.600000*%
G04 APERTURE END LIST*
%TO.C,R13*%
G36*
G01*
X142800002Y-86250000D02*
X141899998Y-86250000D01*
G75*
G02*
X141650000Y-86000002I0J249998D01*
G01*
X141650000Y-85474998D01*
G75*
G02*
X141899998Y-85225000I249998J0D01*
G01*
X142800002Y-85225000D01*
G75*
G02*
X143050000Y-85474998I0J-249998D01*
G01*
X143050000Y-86000002D01*
G75*
G02*
X142800002Y-86250000I-249998J0D01*
G01*
G37*
G36*
G01*
X142800002Y-88075000D02*
X141899998Y-88075000D01*
G75*
G02*
X141650000Y-87825002I0J249998D01*
G01*
X141650000Y-87299998D01*
G75*
G02*
X141899998Y-87050000I249998J0D01*
G01*
X142800002Y-87050000D01*
G75*
G02*
X143050000Y-87299998I0J-249998D01*
G01*
X143050000Y-87825002D01*
G75*
G02*
X142800002Y-88075000I-249998J0D01*
G01*
G37*
%TD*%
%TO.C,R2*%
G36*
G01*
X131700002Y-79675000D02*
X130799998Y-79675000D01*
G75*
G02*
X130550000Y-79425002I0J249998D01*
G01*
X130550000Y-78899998D01*
G75*
G02*
X130799998Y-78650000I249998J0D01*
G01*
X131700002Y-78650000D01*
G75*
G02*
X131950000Y-78899998I0J-249998D01*
G01*
X131950000Y-79425002D01*
G75*
G02*
X131700002Y-79675000I-249998J0D01*
G01*
G37*
G36*
G01*
X131700002Y-81500000D02*
X130799998Y-81500000D01*
G75*
G02*
X130550000Y-81250002I0J249998D01*
G01*
X130550000Y-80724998D01*
G75*
G02*
X130799998Y-80475000I249998J0D01*
G01*
X131700002Y-80475000D01*
G75*
G02*
X131950000Y-80724998I0J-249998D01*
G01*
X131950000Y-81250002D01*
G75*
G02*
X131700002Y-81500000I-249998J0D01*
G01*
G37*
%TD*%
%TO.C,R1*%
G36*
G01*
X134775002Y-79650000D02*
X133874998Y-79650000D01*
G75*
G02*
X133625000Y-79400002I0J249998D01*
G01*
X133625000Y-78874998D01*
G75*
G02*
X133874998Y-78625000I249998J0D01*
G01*
X134775002Y-78625000D01*
G75*
G02*
X135025000Y-78874998I0J-249998D01*
G01*
X135025000Y-79400002D01*
G75*
G02*
X134775002Y-79650000I-249998J0D01*
G01*
G37*
G36*
G01*
X134775002Y-81475000D02*
X133874998Y-81475000D01*
G75*
G02*
X133625000Y-81225002I0J249998D01*
G01*
X133625000Y-80699998D01*
G75*
G02*
X133874998Y-80450000I249998J0D01*
G01*
X134775002Y-80450000D01*
G75*
G02*
X135025000Y-80699998I0J-249998D01*
G01*
X135025000Y-81225002D01*
G75*
G02*
X134775002Y-81475000I-249998J0D01*
G01*
G37*
%TD*%
D10*
%TO.C,IC6*%
X154700000Y-41650000D03*
D11*
X152400000Y-47950000D03*
X154700000Y-47950000D03*
X157000000Y-47950000D03*
%TD*%
D12*
%TO.C,Rsense1*%
X137250000Y-56700000D03*
X137250000Y-51500000D03*
%TD*%
D13*
%TO.C,IC5*%
X131450000Y-52850000D03*
X132400000Y-52850000D03*
X133350000Y-52850000D03*
X133350000Y-55350000D03*
X132400000Y-55350000D03*
X131450000Y-55350000D03*
%TD*%
D14*
%TO.C,C5*%
X157300000Y-68585000D03*
X157300000Y-67665000D03*
%TD*%
%TO.C,C10*%
X150114000Y-69040000D03*
X150114000Y-68120000D03*
%TD*%
%TO.C,C6*%
X134112000Y-69246000D03*
X134112000Y-68326000D03*
%TD*%
%TO.C,C4*%
X126848000Y-70038000D03*
X126848000Y-69118000D03*
%TD*%
M02*
