%TF.GenerationSoftware,KiCad,Pcbnew,(5.1.9)-1*%
%TF.CreationDate,2021-10-18T22:43:19-04:00*%
%TF.ProjectId,ECE477_motorcontroller,45434534-3737-45f6-9d6f-746f72636f6e,rev?*%
%TF.SameCoordinates,Original*%
%TF.FileFunction,Soldermask,Bot*%
%TF.FilePolarity,Negative*%
%FSLAX46Y46*%
G04 Gerber Fmt 4.6, Leading zero omitted, Abs format (unit mm)*
G04 Created by KiCad (PCBNEW (5.1.9)-1) date 2021-10-18 22:43:19*
%MOMM*%
%LPD*%
G01*
G04 APERTURE LIST*
%ADD10C,2.200000*%
%ADD11C,1.755000*%
%ADD12R,1.222000X1.222000*%
%ADD13C,1.222000*%
%ADD14R,2.400000X2.400000*%
%ADD15C,2.400000*%
%ADD16R,3.200000X1.750000*%
%ADD17R,0.950000X1.750000*%
%ADD18R,3.400000X1.800000*%
%ADD19R,0.600000X1.250000*%
%ADD20R,0.620000X0.600000*%
%ADD21C,1.200000*%
%ADD22R,1.200000X1.200000*%
G04 APERTURE END LIST*
%TO.C,R13*%
G36*
G01*
X142800002Y-86250000D02*
X141899998Y-86250000D01*
G75*
G02*
X141650000Y-86000002I0J249998D01*
G01*
X141650000Y-85474998D01*
G75*
G02*
X141899998Y-85225000I249998J0D01*
G01*
X142800002Y-85225000D01*
G75*
G02*
X143050000Y-85474998I0J-249998D01*
G01*
X143050000Y-86000002D01*
G75*
G02*
X142800002Y-86250000I-249998J0D01*
G01*
G37*
G36*
G01*
X142800002Y-88075000D02*
X141899998Y-88075000D01*
G75*
G02*
X141650000Y-87825002I0J249998D01*
G01*
X141650000Y-87299998D01*
G75*
G02*
X141899998Y-87050000I249998J0D01*
G01*
X142800002Y-87050000D01*
G75*
G02*
X143050000Y-87299998I0J-249998D01*
G01*
X143050000Y-87825002D01*
G75*
G02*
X142800002Y-88075000I-249998J0D01*
G01*
G37*
%TD*%
D10*
%TO.C,H4*%
X167900000Y-86350000D03*
%TD*%
%TO.C,H3*%
X167600000Y-41350000D03*
%TD*%
%TO.C,H2*%
X107000000Y-86300000D03*
%TD*%
%TO.C,H1*%
X106700000Y-41200000D03*
%TD*%
D11*
%TO.C,TP4*%
X168850000Y-76000000D03*
%TD*%
D12*
%TO.C,RV2*%
X114910000Y-78200000D03*
D13*
X117450000Y-75660000D03*
X119990000Y-78200000D03*
%TD*%
D11*
%TO.C,TP2*%
X140200000Y-75500000D03*
%TD*%
%TO.C,TP3*%
X112350000Y-84600000D03*
%TD*%
%TO.C,TP1*%
X117400000Y-72350000D03*
%TD*%
D14*
%TO.C,J3*%
X126827000Y-83424000D03*
D15*
X131907000Y-83424000D03*
X136987000Y-83424000D03*
X142067000Y-83424000D03*
X147147000Y-83424000D03*
%TD*%
%TO.C,J2*%
X111252000Y-48429000D03*
X111252000Y-53509000D03*
X111252000Y-58589000D03*
X111252000Y-63669000D03*
D14*
X111252000Y-68749000D03*
%TD*%
D15*
%TO.C,J4*%
X147370000Y-47300000D03*
X142290000Y-47300000D03*
X137210000Y-47300000D03*
X132130000Y-47300000D03*
D14*
X127050000Y-47300000D03*
%TD*%
D15*
%TO.C,J1*%
X164948000Y-68610000D03*
X164948000Y-63530000D03*
X164948000Y-58450000D03*
X164948000Y-53370000D03*
D14*
X164948000Y-48290000D03*
%TD*%
%TO.C,R2*%
G36*
G01*
X131700002Y-79675000D02*
X130799998Y-79675000D01*
G75*
G02*
X130550000Y-79425002I0J249998D01*
G01*
X130550000Y-78899998D01*
G75*
G02*
X130799998Y-78650000I249998J0D01*
G01*
X131700002Y-78650000D01*
G75*
G02*
X131950000Y-78899998I0J-249998D01*
G01*
X131950000Y-79425002D01*
G75*
G02*
X131700002Y-79675000I-249998J0D01*
G01*
G37*
G36*
G01*
X131700002Y-81500000D02*
X130799998Y-81500000D01*
G75*
G02*
X130550000Y-81250002I0J249998D01*
G01*
X130550000Y-80724998D01*
G75*
G02*
X130799998Y-80475000I249998J0D01*
G01*
X131700002Y-80475000D01*
G75*
G02*
X131950000Y-80724998I0J-249998D01*
G01*
X131950000Y-81250002D01*
G75*
G02*
X131700002Y-81500000I-249998J0D01*
G01*
G37*
%TD*%
%TO.C,R1*%
G36*
G01*
X134775002Y-79650000D02*
X133874998Y-79650000D01*
G75*
G02*
X133625000Y-79400002I0J249998D01*
G01*
X133625000Y-78874998D01*
G75*
G02*
X133874998Y-78625000I249998J0D01*
G01*
X134775002Y-78625000D01*
G75*
G02*
X135025000Y-78874998I0J-249998D01*
G01*
X135025000Y-79400002D01*
G75*
G02*
X134775002Y-79650000I-249998J0D01*
G01*
G37*
G36*
G01*
X134775002Y-81475000D02*
X133874998Y-81475000D01*
G75*
G02*
X133625000Y-81225002I0J249998D01*
G01*
X133625000Y-80699998D01*
G75*
G02*
X133874998Y-80450000I249998J0D01*
G01*
X134775002Y-80450000D01*
G75*
G02*
X135025000Y-80699998I0J-249998D01*
G01*
X135025000Y-81225002D01*
G75*
G02*
X134775002Y-81475000I-249998J0D01*
G01*
G37*
%TD*%
D16*
%TO.C,IC6*%
X154700000Y-41650000D03*
D17*
X152400000Y-47950000D03*
X154700000Y-47950000D03*
X157000000Y-47950000D03*
%TD*%
D18*
%TO.C,Rsense1*%
X137250000Y-56700000D03*
X137250000Y-51500000D03*
%TD*%
D19*
%TO.C,IC5*%
X131450000Y-52850000D03*
X132400000Y-52850000D03*
X133350000Y-52850000D03*
X133350000Y-55350000D03*
X132400000Y-55350000D03*
X131450000Y-55350000D03*
%TD*%
D20*
%TO.C,C5*%
X157300000Y-68585000D03*
X157300000Y-67665000D03*
%TD*%
%TO.C,C10*%
X150114000Y-69040000D03*
X150114000Y-68120000D03*
%TD*%
D21*
%TO.C,C7*%
X143300000Y-68550000D03*
D22*
X143300000Y-65050000D03*
%TD*%
D20*
%TO.C,C6*%
X134112000Y-69246000D03*
X134112000Y-68326000D03*
%TD*%
%TO.C,C4*%
X126848000Y-70038000D03*
X126848000Y-69118000D03*
%TD*%
D21*
%TO.C,C3*%
X120752000Y-68300000D03*
D22*
X120752000Y-64800000D03*
%TD*%
M02*
