%TF.GenerationSoftware,KiCad,Pcbnew,(5.1.9)-1*%
%TF.CreationDate,2021-10-18T22:43:19-04:00*%
%TF.ProjectId,ECE477_motorcontroller,45434534-3737-45f6-9d6f-746f72636f6e,rev?*%
%TF.SameCoordinates,Original*%
%TF.FileFunction,Soldermask,Top*%
%TF.FilePolarity,Negative*%
%FSLAX46Y46*%
G04 Gerber Fmt 4.6, Leading zero omitted, Abs format (unit mm)*
G04 Created by KiCad (PCBNEW (5.1.9)-1) date 2021-10-18 22:43:19*
%MOMM*%
%LPD*%
G01*
G04 APERTURE LIST*
%ADD10C,2.200000*%
%ADD11C,1.755000*%
%ADD12R,1.222000X1.222000*%
%ADD13C,1.222000*%
%ADD14R,0.620000X0.600000*%
%ADD15R,2.400000X2.400000*%
%ADD16C,2.400000*%
%ADD17R,0.700000X0.600000*%
%ADD18R,4.050000X3.100000*%
%ADD19R,0.450000X1.475000*%
%ADD20R,0.650000X0.620000*%
%ADD21R,1.820000X1.020000*%
%ADD22R,0.620000X0.650000*%
%ADD23C,1.200000*%
%ADD24R,1.200000X1.200000*%
G04 APERTURE END LIST*
%TO.C,R14*%
G36*
G01*
X163050001Y-84900000D02*
X162149999Y-84900000D01*
G75*
G02*
X161900000Y-84650001I0J249999D01*
G01*
X161900000Y-84124999D01*
G75*
G02*
X162149999Y-83875000I249999J0D01*
G01*
X163050001Y-83875000D01*
G75*
G02*
X163300000Y-84124999I0J-249999D01*
G01*
X163300000Y-84650001D01*
G75*
G02*
X163050001Y-84900000I-249999J0D01*
G01*
G37*
G36*
G01*
X163050001Y-86725000D02*
X162149999Y-86725000D01*
G75*
G02*
X161900000Y-86475001I0J249999D01*
G01*
X161900000Y-85949999D01*
G75*
G02*
X162149999Y-85700000I249999J0D01*
G01*
X163050001Y-85700000D01*
G75*
G02*
X163300000Y-85949999I0J-249999D01*
G01*
X163300000Y-86475001D01*
G75*
G02*
X163050001Y-86725000I-249999J0D01*
G01*
G37*
%TD*%
%TO.C,R12*%
G36*
G01*
X115450000Y-84399998D02*
X115450000Y-85300002D01*
G75*
G02*
X115200002Y-85550000I-249998J0D01*
G01*
X114674998Y-85550000D01*
G75*
G02*
X114425000Y-85300002I0J249998D01*
G01*
X114425000Y-84399998D01*
G75*
G02*
X114674998Y-84150000I249998J0D01*
G01*
X115200002Y-84150000D01*
G75*
G02*
X115450000Y-84399998I0J-249998D01*
G01*
G37*
G36*
G01*
X117275000Y-84399998D02*
X117275000Y-85300002D01*
G75*
G02*
X117025002Y-85550000I-249998J0D01*
G01*
X116499998Y-85550000D01*
G75*
G02*
X116250000Y-85300002I0J249998D01*
G01*
X116250000Y-84399998D01*
G75*
G02*
X116499998Y-84150000I249998J0D01*
G01*
X117025002Y-84150000D01*
G75*
G02*
X117275000Y-84399998I0J-249998D01*
G01*
G37*
%TD*%
%TO.C,R11*%
G36*
G01*
X118449998Y-86250000D02*
X119350002Y-86250000D01*
G75*
G02*
X119600000Y-86499998I0J-249998D01*
G01*
X119600000Y-87025002D01*
G75*
G02*
X119350002Y-87275000I-249998J0D01*
G01*
X118449998Y-87275000D01*
G75*
G02*
X118200000Y-87025002I0J249998D01*
G01*
X118200000Y-86499998D01*
G75*
G02*
X118449998Y-86250000I249998J0D01*
G01*
G37*
G36*
G01*
X118449998Y-84425000D02*
X119350002Y-84425000D01*
G75*
G02*
X119600000Y-84674998I0J-249998D01*
G01*
X119600000Y-85200002D01*
G75*
G02*
X119350002Y-85450000I-249998J0D01*
G01*
X118449998Y-85450000D01*
G75*
G02*
X118200000Y-85200002I0J249998D01*
G01*
X118200000Y-84674998D01*
G75*
G02*
X118449998Y-84425000I249998J0D01*
G01*
G37*
%TD*%
D10*
%TO.C,H4*%
X167900000Y-86350000D03*
%TD*%
%TO.C,H3*%
X167600000Y-41350000D03*
%TD*%
%TO.C,H2*%
X107000000Y-86300000D03*
%TD*%
%TO.C,H1*%
X106700000Y-41200000D03*
%TD*%
%TO.C,R10*%
G36*
G01*
X163050002Y-80200000D02*
X162149998Y-80200000D01*
G75*
G02*
X161900000Y-79950002I0J249998D01*
G01*
X161900000Y-79424998D01*
G75*
G02*
X162149998Y-79175000I249998J0D01*
G01*
X163050002Y-79175000D01*
G75*
G02*
X163300000Y-79424998I0J-249998D01*
G01*
X163300000Y-79950002D01*
G75*
G02*
X163050002Y-80200000I-249998J0D01*
G01*
G37*
G36*
G01*
X163050002Y-82025000D02*
X162149998Y-82025000D01*
G75*
G02*
X161900000Y-81775002I0J249998D01*
G01*
X161900000Y-81249998D01*
G75*
G02*
X162149998Y-81000000I249998J0D01*
G01*
X163050002Y-81000000D01*
G75*
G02*
X163300000Y-81249998I0J-249998D01*
G01*
X163300000Y-81775002D01*
G75*
G02*
X163050002Y-82025000I-249998J0D01*
G01*
G37*
%TD*%
%TO.C,R9*%
G36*
G01*
X112149998Y-76100000D02*
X113050002Y-76100000D01*
G75*
G02*
X113300000Y-76349998I0J-249998D01*
G01*
X113300000Y-76875002D01*
G75*
G02*
X113050002Y-77125000I-249998J0D01*
G01*
X112149998Y-77125000D01*
G75*
G02*
X111900000Y-76875002I0J249998D01*
G01*
X111900000Y-76349998D01*
G75*
G02*
X112149998Y-76100000I249998J0D01*
G01*
G37*
G36*
G01*
X112149998Y-74275000D02*
X113050002Y-74275000D01*
G75*
G02*
X113300000Y-74524998I0J-249998D01*
G01*
X113300000Y-75050002D01*
G75*
G02*
X113050002Y-75300000I-249998J0D01*
G01*
X112149998Y-75300000D01*
G75*
G02*
X111900000Y-75050002I0J249998D01*
G01*
X111900000Y-74524998D01*
G75*
G02*
X112149998Y-74275000I249998J0D01*
G01*
G37*
%TD*%
%TO.C,R8*%
G36*
G01*
X142899998Y-75500000D02*
X143800002Y-75500000D01*
G75*
G02*
X144050000Y-75749998I0J-249998D01*
G01*
X144050000Y-76275002D01*
G75*
G02*
X143800002Y-76525000I-249998J0D01*
G01*
X142899998Y-76525000D01*
G75*
G02*
X142650000Y-76275002I0J249998D01*
G01*
X142650000Y-75749998D01*
G75*
G02*
X142899998Y-75500000I249998J0D01*
G01*
G37*
G36*
G01*
X142899998Y-73675000D02*
X143800002Y-73675000D01*
G75*
G02*
X144050000Y-73924998I0J-249998D01*
G01*
X144050000Y-74450002D01*
G75*
G02*
X143800002Y-74700000I-249998J0D01*
G01*
X142899998Y-74700000D01*
G75*
G02*
X142650000Y-74450002I0J249998D01*
G01*
X142650000Y-73924998D01*
G75*
G02*
X142899998Y-73675000I249998J0D01*
G01*
G37*
%TD*%
%TO.C,R7*%
G36*
G01*
X143000000Y-72700002D02*
X143000000Y-71799998D01*
G75*
G02*
X143249998Y-71550000I249998J0D01*
G01*
X143775002Y-71550000D01*
G75*
G02*
X144025000Y-71799998I0J-249998D01*
G01*
X144025000Y-72700002D01*
G75*
G02*
X143775002Y-72950000I-249998J0D01*
G01*
X143249998Y-72950000D01*
G75*
G02*
X143000000Y-72700002I0J249998D01*
G01*
G37*
G36*
G01*
X141175000Y-72700002D02*
X141175000Y-71799998D01*
G75*
G02*
X141424998Y-71550000I249998J0D01*
G01*
X141950002Y-71550000D01*
G75*
G02*
X142200000Y-71799998I0J-249998D01*
G01*
X142200000Y-72700002D01*
G75*
G02*
X141950002Y-72950000I-249998J0D01*
G01*
X141424998Y-72950000D01*
G75*
G02*
X141175000Y-72700002I0J249998D01*
G01*
G37*
%TD*%
%TO.C,R4*%
G36*
G01*
X162599998Y-77250000D02*
X163500002Y-77250000D01*
G75*
G02*
X163750000Y-77499998I0J-249998D01*
G01*
X163750000Y-78025002D01*
G75*
G02*
X163500002Y-78275000I-249998J0D01*
G01*
X162599998Y-78275000D01*
G75*
G02*
X162350000Y-78025002I0J249998D01*
G01*
X162350000Y-77499998D01*
G75*
G02*
X162599998Y-77250000I249998J0D01*
G01*
G37*
G36*
G01*
X162599998Y-75425000D02*
X163500002Y-75425000D01*
G75*
G02*
X163750000Y-75674998I0J-249998D01*
G01*
X163750000Y-76200002D01*
G75*
G02*
X163500002Y-76450000I-249998J0D01*
G01*
X162599998Y-76450000D01*
G75*
G02*
X162350000Y-76200002I0J249998D01*
G01*
X162350000Y-75674998D01*
G75*
G02*
X162599998Y-75425000I249998J0D01*
G01*
G37*
%TD*%
%TO.C,R3*%
G36*
G01*
X113450000Y-72299998D02*
X113450000Y-73200002D01*
G75*
G02*
X113200002Y-73450000I-249998J0D01*
G01*
X112674998Y-73450000D01*
G75*
G02*
X112425000Y-73200002I0J249998D01*
G01*
X112425000Y-72299998D01*
G75*
G02*
X112674998Y-72050000I249998J0D01*
G01*
X113200002Y-72050000D01*
G75*
G02*
X113450000Y-72299998I0J-249998D01*
G01*
G37*
G36*
G01*
X115275000Y-72299998D02*
X115275000Y-73200002D01*
G75*
G02*
X115025002Y-73450000I-249998J0D01*
G01*
X114499998Y-73450000D01*
G75*
G02*
X114250000Y-73200002I0J249998D01*
G01*
X114250000Y-72299998D01*
G75*
G02*
X114499998Y-72050000I249998J0D01*
G01*
X115025002Y-72050000D01*
G75*
G02*
X115275000Y-72299998I0J-249998D01*
G01*
G37*
%TD*%
D11*
%TO.C,TP4*%
X168850000Y-76000000D03*
%TD*%
D12*
%TO.C,RV2*%
X114910000Y-78200000D03*
D13*
X117450000Y-75660000D03*
X119990000Y-78200000D03*
%TD*%
D11*
%TO.C,TP2*%
X140200000Y-75500000D03*
%TD*%
%TO.C,TP3*%
X112350000Y-84600000D03*
%TD*%
%TO.C,TP1*%
X117400000Y-72350000D03*
%TD*%
D14*
%TO.C,C14*%
X152300000Y-51240000D03*
X152300000Y-52160000D03*
%TD*%
%TO.C,C13*%
X157300000Y-50940000D03*
X157300000Y-51860000D03*
%TD*%
D15*
%TO.C,J3*%
X126827000Y-83424000D03*
D16*
X131907000Y-83424000D03*
X136987000Y-83424000D03*
X142067000Y-83424000D03*
X147147000Y-83424000D03*
%TD*%
%TO.C,J2*%
X111252000Y-48429000D03*
X111252000Y-53509000D03*
X111252000Y-58589000D03*
X111252000Y-63669000D03*
D15*
X111252000Y-68749000D03*
%TD*%
D16*
%TO.C,J4*%
X147370000Y-47300000D03*
X142290000Y-47300000D03*
X137210000Y-47300000D03*
X132130000Y-47300000D03*
D15*
X127050000Y-47300000D03*
%TD*%
D16*
%TO.C,J1*%
X164948000Y-68610000D03*
X164948000Y-63530000D03*
X164948000Y-58450000D03*
X164948000Y-53370000D03*
D15*
X164948000Y-48290000D03*
%TD*%
%TO.C,R6*%
G36*
G01*
X154678002Y-79721000D02*
X153777998Y-79721000D01*
G75*
G02*
X153528000Y-79471002I0J249998D01*
G01*
X153528000Y-78945998D01*
G75*
G02*
X153777998Y-78696000I249998J0D01*
G01*
X154678002Y-78696000D01*
G75*
G02*
X154928000Y-78945998I0J-249998D01*
G01*
X154928000Y-79471002D01*
G75*
G02*
X154678002Y-79721000I-249998J0D01*
G01*
G37*
G36*
G01*
X154678002Y-81546000D02*
X153777998Y-81546000D01*
G75*
G02*
X153528000Y-81296002I0J249998D01*
G01*
X153528000Y-80770998D01*
G75*
G02*
X153777998Y-80521000I249998J0D01*
G01*
X154678002Y-80521000D01*
G75*
G02*
X154928000Y-80770998I0J-249998D01*
G01*
X154928000Y-81296002D01*
G75*
G02*
X154678002Y-81546000I-249998J0D01*
G01*
G37*
%TD*%
%TO.C,R5*%
G36*
G01*
X157100002Y-79750000D02*
X156199998Y-79750000D01*
G75*
G02*
X155950000Y-79500002I0J249998D01*
G01*
X155950000Y-78974998D01*
G75*
G02*
X156199998Y-78725000I249998J0D01*
G01*
X157100002Y-78725000D01*
G75*
G02*
X157350000Y-78974998I0J-249998D01*
G01*
X157350000Y-79500002D01*
G75*
G02*
X157100002Y-79750000I-249998J0D01*
G01*
G37*
G36*
G01*
X157100002Y-81575000D02*
X156199998Y-81575000D01*
G75*
G02*
X155950000Y-81325002I0J249998D01*
G01*
X155950000Y-80799998D01*
G75*
G02*
X156199998Y-80550000I249998J0D01*
G01*
X157100002Y-80550000D01*
G75*
G02*
X157350000Y-80799998I0J-249998D01*
G01*
X157350000Y-81325002D01*
G75*
G02*
X157100002Y-81575000I-249998J0D01*
G01*
G37*
%TD*%
D17*
%TO.C,Rnfault2*%
X150114000Y-74293000D03*
X149014000Y-74293000D03*
%TD*%
%TO.C,Rnfault1*%
X127000000Y-75184000D03*
X125900000Y-75184000D03*
%TD*%
D18*
%TO.C,IC2*%
X153700000Y-68400000D03*
D19*
X157925000Y-71338000D03*
X157275000Y-71338000D03*
X156625000Y-71338000D03*
X155975000Y-71338000D03*
X155325000Y-71338000D03*
X154675000Y-71338000D03*
X154025000Y-71338000D03*
X153375000Y-71338000D03*
X152725000Y-71338000D03*
X152075000Y-71338000D03*
X151425000Y-71338000D03*
X150775000Y-71338000D03*
X150125000Y-71338000D03*
X149475000Y-71338000D03*
X149475000Y-65462000D03*
X150125000Y-65462000D03*
X150775000Y-65462000D03*
X151425000Y-65462000D03*
X152075000Y-65462000D03*
X152725000Y-65462000D03*
X153375000Y-65462000D03*
X154025000Y-65462000D03*
X154675000Y-65462000D03*
X155325000Y-65462000D03*
X155975000Y-65462000D03*
X156625000Y-65462000D03*
X157275000Y-65462000D03*
X157925000Y-65462000D03*
%TD*%
D18*
%TO.C,IC1*%
X130600000Y-69000000D03*
D19*
X134825000Y-71938000D03*
X134175000Y-71938000D03*
X133525000Y-71938000D03*
X132875000Y-71938000D03*
X132225000Y-71938000D03*
X131575000Y-71938000D03*
X130925000Y-71938000D03*
X130275000Y-71938000D03*
X129625000Y-71938000D03*
X128975000Y-71938000D03*
X128325000Y-71938000D03*
X127675000Y-71938000D03*
X127025000Y-71938000D03*
X126375000Y-71938000D03*
X126375000Y-66062000D03*
X127025000Y-66062000D03*
X127675000Y-66062000D03*
X128325000Y-66062000D03*
X128975000Y-66062000D03*
X129625000Y-66062000D03*
X130275000Y-66062000D03*
X130925000Y-66062000D03*
X131575000Y-66062000D03*
X132225000Y-66062000D03*
X132875000Y-66062000D03*
X133525000Y-66062000D03*
X134175000Y-66062000D03*
X134825000Y-66062000D03*
%TD*%
D20*
%TO.C,C12*%
X148150000Y-72898000D03*
X149030000Y-72898000D03*
%TD*%
D21*
%TO.C,C11*%
X160884000Y-72290000D03*
X160884000Y-75090000D03*
%TD*%
D22*
%TO.C,C9*%
X158900000Y-63790000D03*
X158900000Y-62910000D03*
%TD*%
D21*
%TO.C,C8*%
X137116000Y-71424000D03*
X137116000Y-74224000D03*
%TD*%
D23*
%TO.C,C7*%
X143300000Y-68550000D03*
D24*
X143300000Y-65050000D03*
%TD*%
D23*
%TO.C,C3*%
X120752000Y-68300000D03*
D24*
X120752000Y-64800000D03*
%TD*%
D20*
%TO.C,C2*%
X125290000Y-73914000D03*
X126170000Y-73914000D03*
%TD*%
D22*
%TO.C,C1*%
X135890000Y-62806000D03*
X135890000Y-63686000D03*
%TD*%
M02*
