M48
; DRILL file {KiCad (5.1.9)-1} date 10/18/21 22:43:22
; FORMAT={-:-/ absolute / inch / decimal}
; #@! TF.CreationDate,2021-10-18T22:43:22-04:00
; #@! TF.GenerationSoftware,Kicad,Pcbnew,(5.1.9)-1
; #@! TF.FileFunction,Plated,1,2,PTH
FMAT,2
INCH
T1C0.0080
T2C0.0157
T3C0.0260
T4C0.0281
T5C0.0300
T6C0.0315
T7C0.0461
T8C0.0520
T9C0.0630
T10C0.0906
%
G90
G05
T1
X4.7067Y-2.8071
X4.7067Y-2.8386
X4.7067Y-2.8701
X4.7461Y-2.8071
X4.7461Y-2.8386
X4.7461Y-2.8701
X4.7854Y-2.8071
X4.7854Y-2.8386
X4.7854Y-2.8701
X4.8248Y-2.8071
X4.8248Y-2.8386
X4.8248Y-2.8701
X4.8346Y-2.311
X4.8583Y-2.2795
X4.8642Y-2.8071
X4.8642Y-2.8386
X4.8642Y-2.8701
X4.874Y-2.311
X4.8819Y-2.248
X4.8957Y-2.2776
X4.9134Y-2.2165
X4.9134Y-2.311
X4.9173Y-2.2421
X4.935Y-2.2776
X4.9449Y-2.2165
X4.9528Y-2.311
X4.9567Y-2.2421
X4.9744Y-2.2776
X4.9803Y-2.2165
X4.9941Y-2.3012
X4.9961Y-2.2421
X5.0138Y-2.2776
X5.0335Y-2.3012
X5.0531Y-2.2776
X5.0709Y-2.2992
X5.4449Y-2.5236
X5.4449Y-2.5236
X5.4449Y-2.563
X5.4449Y-2.6024
X5.4449Y-2.6417
X5.4449Y-2.6811
X5.4449Y-2.7205
X5.4449Y-2.7598
X5.5591Y-2.1161
X5.5591Y-2.1555
X5.5591Y-2.1949
X5.5591Y-2.2343
X5.5591Y-2.2736
X5.5669Y-2.5236
X5.5669Y-2.563
X5.5669Y-2.6024
X5.5669Y-2.6417
X5.5669Y-2.6811
X5.5669Y-2.7205
X5.5669Y-2.7598
X5.5984Y-2.1161
X5.5984Y-2.1555
X5.5984Y-2.1949
X5.5984Y-2.2343
X5.5984Y-2.2736
X5.6378Y-2.1161
X5.6378Y-2.1555
X5.6378Y-2.1949
X5.6378Y-2.2343
X5.6378Y-2.2736
X5.6772Y-2.1161
X5.6772Y-2.1555
X5.6772Y-2.1949
X5.6772Y-2.2343
X5.6772Y-2.2736
X5.7165Y-2.1161
X5.7165Y-2.1555
X5.7165Y-2.1949
X5.7165Y-2.2343
X5.7165Y-2.2736
X5.7303Y-2.5472
X5.7303Y-2.5787
X5.7303Y-2.5787
X5.7303Y-2.6102
X5.7303Y-2.6102
X5.7303Y-2.6417
X5.7303Y-2.6417
X5.7303Y-2.6732
X5.7303Y-2.6732
X5.7303Y-2.7047
X5.7303Y-2.7362
X5.7559Y-2.1161
X5.7559Y-2.1555
X5.7559Y-2.1949
X5.7559Y-2.2343
X5.7559Y-2.2736
X5.7953Y-2.1161
X5.7953Y-2.1555
X5.7953Y-2.1949
X5.7953Y-2.2343
X5.7953Y-2.2736
X5.8346Y-2.1161
X5.8346Y-2.1555
X5.8346Y-2.1949
X5.8346Y-2.2343
X5.8346Y-2.2736
T2
X4.5138Y-2.9252
X4.7087Y-2.9705
X4.7913Y-2.9094
X4.7972Y-3.0059
X4.815Y-2.2598
X4.9547Y-3.0728
X4.994Y-2.6712
X5.0335Y-3.1043
X5.0828Y-2.9587
X5.1043Y-3.0059
X5.1673Y-3.0561
X5.2165Y-2.9154
X5.2173Y-3.0249
X5.2461Y-2.5295
X5.254Y-2.7612
X5.28Y-2.65
X5.2884Y-3.0512
X5.4094Y-2.9724
X5.4193Y-3.1654
X5.6457Y-3.1909
X5.7224Y-2.9193
X5.91Y-2.64
X5.937Y-2.498
X5.9606Y-3.1024
X5.9961Y-2.8819
X6.0157Y-3.0118
X6.0315Y-2.9724
X6.1309Y-2.9724
X6.1496Y-2.4744
X6.1929Y-2.625
X6.2431Y-3.2431
X6.2451Y-3.1919
X6.2972Y-3.063
T3
X4.7283Y-2.2362
X4.8474Y-3.3179
X5.064Y-2.5212
X5.1076Y-2.4748
X5.2559Y-2.2805
X5.4154Y-2.4793
X5.9961Y-1.9705
X6.0989Y-2.0432
X6.25Y-1.9606
X6.4035Y-3.4626
T4
X4.524Y-3.0787
X4.624Y-2.9787
X4.724Y-3.0787
T5
X4.4823Y-3.2638
X5.7185Y-3.437
X6.2032Y-3.437
T6
X4.754Y-2.5512
X4.754Y-2.689
X5.6417Y-2.561
X5.6417Y-2.6988
T7
X4.4232Y-3.3307
X4.622Y-2.8484
X5.5197Y-2.9724
X6.6476Y-2.9921
T8
X4.998Y-2.3839
X5.2815Y-2.3839
X5.8287Y-2.374
X6.186Y-2.3789
T9
X4.38Y-1.9067
X4.38Y-2.1067
X4.38Y-2.3067
X4.38Y-2.5067
X4.38Y-2.7067
X4.9932Y-3.2844
X5.002Y-1.8622
X5.1932Y-3.2844
X5.202Y-1.8622
X5.3932Y-3.2844
X5.402Y-1.8622
X5.5932Y-3.2844
X5.602Y-1.8622
X5.7932Y-3.2844
X5.802Y-1.8622
X6.494Y-1.9012
X6.494Y-2.1012
X6.494Y-2.3012
X6.494Y-2.5012
X6.494Y-2.7012
T10
X5.1417Y-2.7165
X6.0531Y-2.6929
T0
M30
