%TF.GenerationSoftware,KiCad,Pcbnew,(5.1.9)-1*%
%TF.CreationDate,2021-10-15T13:48:39-04:00*%
%TF.ProjectId,ECE477_motorcontroller,45434534-3737-45f6-9d6f-746f72636f6e,rev?*%
%TF.SameCoordinates,Original*%
%TF.FileFunction,Paste,Bot*%
%TF.FilePolarity,Positive*%
%FSLAX46Y46*%
G04 Gerber Fmt 4.6, Leading zero omitted, Abs format (unit mm)*
G04 Created by KiCad (PCBNEW (5.1.9)-1) date 2021-10-15 13:48:39*
%MOMM*%
%LPD*%
G01*
G04 APERTURE LIST*
%ADD10R,3.200000X1.750000*%
%ADD11R,0.950000X1.750000*%
%ADD12R,3.400000X1.800000*%
%ADD13R,0.600000X1.250000*%
%ADD14R,0.620000X0.600000*%
G04 APERTURE END LIST*
%TO.C,R2*%
G36*
G01*
X131700001Y-79675000D02*
X130799999Y-79675000D01*
G75*
G02*
X130550000Y-79425001I0J249999D01*
G01*
X130550000Y-78899999D01*
G75*
G02*
X130799999Y-78650000I249999J0D01*
G01*
X131700001Y-78650000D01*
G75*
G02*
X131950000Y-78899999I0J-249999D01*
G01*
X131950000Y-79425001D01*
G75*
G02*
X131700001Y-79675000I-249999J0D01*
G01*
G37*
G36*
G01*
X131700001Y-81500000D02*
X130799999Y-81500000D01*
G75*
G02*
X130550000Y-81250001I0J249999D01*
G01*
X130550000Y-80724999D01*
G75*
G02*
X130799999Y-80475000I249999J0D01*
G01*
X131700001Y-80475000D01*
G75*
G02*
X131950000Y-80724999I0J-249999D01*
G01*
X131950000Y-81250001D01*
G75*
G02*
X131700001Y-81500000I-249999J0D01*
G01*
G37*
%TD*%
%TO.C,R1*%
G36*
G01*
X134775001Y-79650000D02*
X133874999Y-79650000D01*
G75*
G02*
X133625000Y-79400001I0J249999D01*
G01*
X133625000Y-78874999D01*
G75*
G02*
X133874999Y-78625000I249999J0D01*
G01*
X134775001Y-78625000D01*
G75*
G02*
X135025000Y-78874999I0J-249999D01*
G01*
X135025000Y-79400001D01*
G75*
G02*
X134775001Y-79650000I-249999J0D01*
G01*
G37*
G36*
G01*
X134775001Y-81475000D02*
X133874999Y-81475000D01*
G75*
G02*
X133625000Y-81225001I0J249999D01*
G01*
X133625000Y-80699999D01*
G75*
G02*
X133874999Y-80450000I249999J0D01*
G01*
X134775001Y-80450000D01*
G75*
G02*
X135025000Y-80699999I0J-249999D01*
G01*
X135025000Y-81225001D01*
G75*
G02*
X134775001Y-81475000I-249999J0D01*
G01*
G37*
%TD*%
D10*
%TO.C,IC6*%
X154700000Y-41650000D03*
D11*
X152400000Y-47950000D03*
X154700000Y-47950000D03*
X157000000Y-47950000D03*
%TD*%
D12*
%TO.C,Rsense1*%
X137250000Y-56700000D03*
X137250000Y-51500000D03*
%TD*%
D13*
%TO.C,IC5*%
X131450000Y-52850000D03*
X132400000Y-52850000D03*
X133350000Y-52850000D03*
X133350000Y-55350000D03*
X132400000Y-55350000D03*
X131450000Y-55350000D03*
%TD*%
D14*
%TO.C,C5*%
X157300000Y-68585000D03*
X157300000Y-67665000D03*
%TD*%
%TO.C,C10*%
X150114000Y-69040000D03*
X150114000Y-68120000D03*
%TD*%
%TO.C,C6*%
X134112000Y-69246000D03*
X134112000Y-68326000D03*
%TD*%
%TO.C,C4*%
X126848000Y-70038000D03*
X126848000Y-69118000D03*
%TD*%
M02*
