%TF.GenerationSoftware,KiCad,Pcbnew,(5.1.9)-1*%
%TF.CreationDate,2021-10-15T13:48:39-04:00*%
%TF.ProjectId,ECE477_motorcontroller,45434534-3737-45f6-9d6f-746f72636f6e,rev?*%
%TF.SameCoordinates,Original*%
%TF.FileFunction,Paste,Top*%
%TF.FilePolarity,Positive*%
%FSLAX46Y46*%
G04 Gerber Fmt 4.6, Leading zero omitted, Abs format (unit mm)*
G04 Created by KiCad (PCBNEW (5.1.9)-1) date 2021-10-15 13:48:39*
%MOMM*%
%LPD*%
G01*
G04 APERTURE LIST*
%ADD10R,0.620000X0.600000*%
%ADD11R,0.700000X0.600000*%
%ADD12R,4.050000X3.100000*%
%ADD13R,0.450000X1.475000*%
%ADD14R,0.650000X0.620000*%
%ADD15R,1.820000X1.020000*%
%ADD16R,0.620000X0.650000*%
G04 APERTURE END LIST*
%TO.C,R13*%
G36*
G01*
X152612500Y-86149999D02*
X152612500Y-87050001D01*
G75*
G02*
X152362501Y-87300000I-249999J0D01*
G01*
X151837499Y-87300000D01*
G75*
G02*
X151587500Y-87050001I0J249999D01*
G01*
X151587500Y-86149999D01*
G75*
G02*
X151837499Y-85900000I249999J0D01*
G01*
X152362501Y-85900000D01*
G75*
G02*
X152612500Y-86149999I0J-249999D01*
G01*
G37*
G36*
G01*
X154437500Y-86149999D02*
X154437500Y-87050001D01*
G75*
G02*
X154187501Y-87300000I-249999J0D01*
G01*
X153662499Y-87300000D01*
G75*
G02*
X153412500Y-87050001I0J249999D01*
G01*
X153412500Y-86149999D01*
G75*
G02*
X153662499Y-85900000I249999J0D01*
G01*
X154187501Y-85900000D01*
G75*
G02*
X154437500Y-86149999I0J-249999D01*
G01*
G37*
%TD*%
%TO.C,R12*%
G36*
G01*
X115450000Y-84399999D02*
X115450000Y-85300001D01*
G75*
G02*
X115200001Y-85550000I-249999J0D01*
G01*
X114674999Y-85550000D01*
G75*
G02*
X114425000Y-85300001I0J249999D01*
G01*
X114425000Y-84399999D01*
G75*
G02*
X114674999Y-84150000I249999J0D01*
G01*
X115200001Y-84150000D01*
G75*
G02*
X115450000Y-84399999I0J-249999D01*
G01*
G37*
G36*
G01*
X117275000Y-84399999D02*
X117275000Y-85300001D01*
G75*
G02*
X117025001Y-85550000I-249999J0D01*
G01*
X116499999Y-85550000D01*
G75*
G02*
X116250000Y-85300001I0J249999D01*
G01*
X116250000Y-84399999D01*
G75*
G02*
X116499999Y-84150000I249999J0D01*
G01*
X117025001Y-84150000D01*
G75*
G02*
X117275000Y-84399999I0J-249999D01*
G01*
G37*
%TD*%
%TO.C,R11*%
G36*
G01*
X118449999Y-86250000D02*
X119350001Y-86250000D01*
G75*
G02*
X119600000Y-86499999I0J-249999D01*
G01*
X119600000Y-87025001D01*
G75*
G02*
X119350001Y-87275000I-249999J0D01*
G01*
X118449999Y-87275000D01*
G75*
G02*
X118200000Y-87025001I0J249999D01*
G01*
X118200000Y-86499999D01*
G75*
G02*
X118449999Y-86250000I249999J0D01*
G01*
G37*
G36*
G01*
X118449999Y-84425000D02*
X119350001Y-84425000D01*
G75*
G02*
X119600000Y-84674999I0J-249999D01*
G01*
X119600000Y-85200001D01*
G75*
G02*
X119350001Y-85450000I-249999J0D01*
G01*
X118449999Y-85450000D01*
G75*
G02*
X118200000Y-85200001I0J249999D01*
G01*
X118200000Y-84674999D01*
G75*
G02*
X118449999Y-84425000I249999J0D01*
G01*
G37*
%TD*%
%TO.C,R10*%
G36*
G01*
X163050001Y-80200000D02*
X162149999Y-80200000D01*
G75*
G02*
X161900000Y-79950001I0J249999D01*
G01*
X161900000Y-79424999D01*
G75*
G02*
X162149999Y-79175000I249999J0D01*
G01*
X163050001Y-79175000D01*
G75*
G02*
X163300000Y-79424999I0J-249999D01*
G01*
X163300000Y-79950001D01*
G75*
G02*
X163050001Y-80200000I-249999J0D01*
G01*
G37*
G36*
G01*
X163050001Y-82025000D02*
X162149999Y-82025000D01*
G75*
G02*
X161900000Y-81775001I0J249999D01*
G01*
X161900000Y-81249999D01*
G75*
G02*
X162149999Y-81000000I249999J0D01*
G01*
X163050001Y-81000000D01*
G75*
G02*
X163300000Y-81249999I0J-249999D01*
G01*
X163300000Y-81775001D01*
G75*
G02*
X163050001Y-82025000I-249999J0D01*
G01*
G37*
%TD*%
%TO.C,R9*%
G36*
G01*
X112149999Y-76100000D02*
X113050001Y-76100000D01*
G75*
G02*
X113300000Y-76349999I0J-249999D01*
G01*
X113300000Y-76875001D01*
G75*
G02*
X113050001Y-77125000I-249999J0D01*
G01*
X112149999Y-77125000D01*
G75*
G02*
X111900000Y-76875001I0J249999D01*
G01*
X111900000Y-76349999D01*
G75*
G02*
X112149999Y-76100000I249999J0D01*
G01*
G37*
G36*
G01*
X112149999Y-74275000D02*
X113050001Y-74275000D01*
G75*
G02*
X113300000Y-74524999I0J-249999D01*
G01*
X113300000Y-75050001D01*
G75*
G02*
X113050001Y-75300000I-249999J0D01*
G01*
X112149999Y-75300000D01*
G75*
G02*
X111900000Y-75050001I0J249999D01*
G01*
X111900000Y-74524999D01*
G75*
G02*
X112149999Y-74275000I249999J0D01*
G01*
G37*
%TD*%
%TO.C,R8*%
G36*
G01*
X142899999Y-75500000D02*
X143800001Y-75500000D01*
G75*
G02*
X144050000Y-75749999I0J-249999D01*
G01*
X144050000Y-76275001D01*
G75*
G02*
X143800001Y-76525000I-249999J0D01*
G01*
X142899999Y-76525000D01*
G75*
G02*
X142650000Y-76275001I0J249999D01*
G01*
X142650000Y-75749999D01*
G75*
G02*
X142899999Y-75500000I249999J0D01*
G01*
G37*
G36*
G01*
X142899999Y-73675000D02*
X143800001Y-73675000D01*
G75*
G02*
X144050000Y-73924999I0J-249999D01*
G01*
X144050000Y-74450001D01*
G75*
G02*
X143800001Y-74700000I-249999J0D01*
G01*
X142899999Y-74700000D01*
G75*
G02*
X142650000Y-74450001I0J249999D01*
G01*
X142650000Y-73924999D01*
G75*
G02*
X142899999Y-73675000I249999J0D01*
G01*
G37*
%TD*%
%TO.C,R7*%
G36*
G01*
X143000000Y-72700001D02*
X143000000Y-71799999D01*
G75*
G02*
X143249999Y-71550000I249999J0D01*
G01*
X143775001Y-71550000D01*
G75*
G02*
X144025000Y-71799999I0J-249999D01*
G01*
X144025000Y-72700001D01*
G75*
G02*
X143775001Y-72950000I-249999J0D01*
G01*
X143249999Y-72950000D01*
G75*
G02*
X143000000Y-72700001I0J249999D01*
G01*
G37*
G36*
G01*
X141175000Y-72700001D02*
X141175000Y-71799999D01*
G75*
G02*
X141424999Y-71550000I249999J0D01*
G01*
X141950001Y-71550000D01*
G75*
G02*
X142200000Y-71799999I0J-249999D01*
G01*
X142200000Y-72700001D01*
G75*
G02*
X141950001Y-72950000I-249999J0D01*
G01*
X141424999Y-72950000D01*
G75*
G02*
X141175000Y-72700001I0J249999D01*
G01*
G37*
%TD*%
%TO.C,R4*%
G36*
G01*
X162599999Y-77250000D02*
X163500001Y-77250000D01*
G75*
G02*
X163750000Y-77499999I0J-249999D01*
G01*
X163750000Y-78025001D01*
G75*
G02*
X163500001Y-78275000I-249999J0D01*
G01*
X162599999Y-78275000D01*
G75*
G02*
X162350000Y-78025001I0J249999D01*
G01*
X162350000Y-77499999D01*
G75*
G02*
X162599999Y-77250000I249999J0D01*
G01*
G37*
G36*
G01*
X162599999Y-75425000D02*
X163500001Y-75425000D01*
G75*
G02*
X163750000Y-75674999I0J-249999D01*
G01*
X163750000Y-76200001D01*
G75*
G02*
X163500001Y-76450000I-249999J0D01*
G01*
X162599999Y-76450000D01*
G75*
G02*
X162350000Y-76200001I0J249999D01*
G01*
X162350000Y-75674999D01*
G75*
G02*
X162599999Y-75425000I249999J0D01*
G01*
G37*
%TD*%
%TO.C,R3*%
G36*
G01*
X113450000Y-72299999D02*
X113450000Y-73200001D01*
G75*
G02*
X113200001Y-73450000I-249999J0D01*
G01*
X112674999Y-73450000D01*
G75*
G02*
X112425000Y-73200001I0J249999D01*
G01*
X112425000Y-72299999D01*
G75*
G02*
X112674999Y-72050000I249999J0D01*
G01*
X113200001Y-72050000D01*
G75*
G02*
X113450000Y-72299999I0J-249999D01*
G01*
G37*
G36*
G01*
X115275000Y-72299999D02*
X115275000Y-73200001D01*
G75*
G02*
X115025001Y-73450000I-249999J0D01*
G01*
X114499999Y-73450000D01*
G75*
G02*
X114250000Y-73200001I0J249999D01*
G01*
X114250000Y-72299999D01*
G75*
G02*
X114499999Y-72050000I249999J0D01*
G01*
X115025001Y-72050000D01*
G75*
G02*
X115275000Y-72299999I0J-249999D01*
G01*
G37*
%TD*%
D10*
%TO.C,C14*%
X152300000Y-51240000D03*
X152300000Y-52160000D03*
%TD*%
%TO.C,C13*%
X157300000Y-50940000D03*
X157300000Y-51860000D03*
%TD*%
%TO.C,R6*%
G36*
G01*
X154678001Y-79721000D02*
X153777999Y-79721000D01*
G75*
G02*
X153528000Y-79471001I0J249999D01*
G01*
X153528000Y-78945999D01*
G75*
G02*
X153777999Y-78696000I249999J0D01*
G01*
X154678001Y-78696000D01*
G75*
G02*
X154928000Y-78945999I0J-249999D01*
G01*
X154928000Y-79471001D01*
G75*
G02*
X154678001Y-79721000I-249999J0D01*
G01*
G37*
G36*
G01*
X154678001Y-81546000D02*
X153777999Y-81546000D01*
G75*
G02*
X153528000Y-81296001I0J249999D01*
G01*
X153528000Y-80770999D01*
G75*
G02*
X153777999Y-80521000I249999J0D01*
G01*
X154678001Y-80521000D01*
G75*
G02*
X154928000Y-80770999I0J-249999D01*
G01*
X154928000Y-81296001D01*
G75*
G02*
X154678001Y-81546000I-249999J0D01*
G01*
G37*
%TD*%
%TO.C,R5*%
G36*
G01*
X157100001Y-79750000D02*
X156199999Y-79750000D01*
G75*
G02*
X155950000Y-79500001I0J249999D01*
G01*
X155950000Y-78974999D01*
G75*
G02*
X156199999Y-78725000I249999J0D01*
G01*
X157100001Y-78725000D01*
G75*
G02*
X157350000Y-78974999I0J-249999D01*
G01*
X157350000Y-79500001D01*
G75*
G02*
X157100001Y-79750000I-249999J0D01*
G01*
G37*
G36*
G01*
X157100001Y-81575000D02*
X156199999Y-81575000D01*
G75*
G02*
X155950000Y-81325001I0J249999D01*
G01*
X155950000Y-80799999D01*
G75*
G02*
X156199999Y-80550000I249999J0D01*
G01*
X157100001Y-80550000D01*
G75*
G02*
X157350000Y-80799999I0J-249999D01*
G01*
X157350000Y-81325001D01*
G75*
G02*
X157100001Y-81575000I-249999J0D01*
G01*
G37*
%TD*%
D11*
%TO.C,Rnfault2*%
X150114000Y-74293000D03*
X149014000Y-74293000D03*
%TD*%
%TO.C,Rnfault1*%
X127000000Y-75184000D03*
X125900000Y-75184000D03*
%TD*%
D12*
%TO.C,IC2*%
X153700000Y-68400000D03*
D13*
X157925000Y-71338000D03*
X157275000Y-71338000D03*
X156625000Y-71338000D03*
X155975000Y-71338000D03*
X155325000Y-71338000D03*
X154675000Y-71338000D03*
X154025000Y-71338000D03*
X153375000Y-71338000D03*
X152725000Y-71338000D03*
X152075000Y-71338000D03*
X151425000Y-71338000D03*
X150775000Y-71338000D03*
X150125000Y-71338000D03*
X149475000Y-71338000D03*
X149475000Y-65462000D03*
X150125000Y-65462000D03*
X150775000Y-65462000D03*
X151425000Y-65462000D03*
X152075000Y-65462000D03*
X152725000Y-65462000D03*
X153375000Y-65462000D03*
X154025000Y-65462000D03*
X154675000Y-65462000D03*
X155325000Y-65462000D03*
X155975000Y-65462000D03*
X156625000Y-65462000D03*
X157275000Y-65462000D03*
X157925000Y-65462000D03*
%TD*%
D12*
%TO.C,IC1*%
X130600000Y-69000000D03*
D13*
X134825000Y-71938000D03*
X134175000Y-71938000D03*
X133525000Y-71938000D03*
X132875000Y-71938000D03*
X132225000Y-71938000D03*
X131575000Y-71938000D03*
X130925000Y-71938000D03*
X130275000Y-71938000D03*
X129625000Y-71938000D03*
X128975000Y-71938000D03*
X128325000Y-71938000D03*
X127675000Y-71938000D03*
X127025000Y-71938000D03*
X126375000Y-71938000D03*
X126375000Y-66062000D03*
X127025000Y-66062000D03*
X127675000Y-66062000D03*
X128325000Y-66062000D03*
X128975000Y-66062000D03*
X129625000Y-66062000D03*
X130275000Y-66062000D03*
X130925000Y-66062000D03*
X131575000Y-66062000D03*
X132225000Y-66062000D03*
X132875000Y-66062000D03*
X133525000Y-66062000D03*
X134175000Y-66062000D03*
X134825000Y-66062000D03*
%TD*%
D14*
%TO.C,C12*%
X148150000Y-72898000D03*
X149030000Y-72898000D03*
%TD*%
D15*
%TO.C,C11*%
X160884000Y-72290000D03*
X160884000Y-75090000D03*
%TD*%
D16*
%TO.C,C9*%
X158900000Y-63790000D03*
X158900000Y-62910000D03*
%TD*%
D15*
%TO.C,C8*%
X137516000Y-71274000D03*
X137516000Y-74074000D03*
%TD*%
D14*
%TO.C,C2*%
X125290000Y-73914000D03*
X126170000Y-73914000D03*
%TD*%
D16*
%TO.C,C1*%
X135890000Y-62806000D03*
X135890000Y-63686000D03*
%TD*%
M02*
