%TF.GenerationSoftware,KiCad,Pcbnew,(5.1.10-1-10_14)*%
%TF.CreationDate,2021-10-15T10:29:32-04:00*%
%TF.ProjectId,main_controller,6d61696e-5f63-46f6-9e74-726f6c6c6572,rev?*%
%TF.SameCoordinates,Original*%
%TF.FileFunction,Legend,Top*%
%TF.FilePolarity,Positive*%
%FSLAX46Y46*%
G04 Gerber Fmt 4.6, Leading zero omitted, Abs format (unit mm)*
G04 Created by KiCad (PCBNEW (5.1.10-1-10_14)) date 2021-10-15 10:29:32*
%MOMM*%
%LPD*%
G01*
G04 APERTURE LIST*
%ADD10C,0.120000*%
%ADD11C,0.200000*%
%ADD12C,0.127000*%
%ADD13C,0.100000*%
%ADD14C,0.150000*%
%ADD15C,0.254000*%
G04 APERTURE END LIST*
D10*
%TO.C,R20*%
X163135000Y-84233578D02*
X163135000Y-83716422D01*
X161715000Y-84233578D02*
X161715000Y-83716422D01*
%TO.C,R19*%
X142116422Y-103485000D02*
X142633578Y-103485000D01*
X142116422Y-102065000D02*
X142633578Y-102065000D01*
%TO.C,R9*%
X142810000Y-114508578D02*
X142810000Y-113991422D01*
X141390000Y-114508578D02*
X141390000Y-113991422D01*
%TO.C,R8*%
X142303922Y-111585000D02*
X142821078Y-111585000D01*
X142303922Y-110165000D02*
X142821078Y-110165000D01*
%TO.C,C19*%
X146683578Y-114090000D02*
X146166422Y-114090000D01*
X146683578Y-115510000D02*
X146166422Y-115510000D01*
%TO.C,D4*%
X141525000Y-109410000D02*
X144210000Y-109410000D01*
X144210000Y-109410000D02*
X144210000Y-107490000D01*
X144210000Y-107490000D02*
X141525000Y-107490000D01*
%TO.C,U1*%
X155515000Y-61140000D02*
X154225000Y-61140000D01*
X155515000Y-60190000D02*
X155515000Y-61140000D01*
X156465000Y-60190000D02*
X155515000Y-60190000D01*
X175735000Y-60190000D02*
X175735000Y-61140000D01*
X174785000Y-60190000D02*
X175735000Y-60190000D01*
X155515000Y-80410000D02*
X155515000Y-79460000D01*
X156465000Y-80410000D02*
X155515000Y-80410000D01*
X175735000Y-80410000D02*
X175735000Y-79460000D01*
X174785000Y-80410000D02*
X175735000Y-80410000D01*
%TO.C,C17*%
X175135000Y-84496078D02*
X175135000Y-83978922D01*
X173715000Y-84496078D02*
X173715000Y-83978922D01*
%TO.C,C16*%
X180065000Y-61091422D02*
X180065000Y-61608578D01*
X181485000Y-61091422D02*
X181485000Y-61608578D01*
%TO.C,Q3*%
X138375000Y-75780000D02*
X138375000Y-72180000D01*
X138363478Y-72141522D02*
G75*
G03*
X133925000Y-73980000I-1838478J-1838478D01*
G01*
X138363478Y-75818478D02*
G75*
G02*
X133925000Y-73980000I-1838478J1838478D01*
G01*
%TO.C,X1*%
X116155000Y-84485000D02*
X116845000Y-84485000D01*
X116885000Y-82605000D02*
X116885000Y-83245000D01*
X114665000Y-82605000D02*
X114665000Y-83245000D01*
X115935000Y-84285000D02*
X115605000Y-84285000D01*
X115945000Y-81565000D02*
X115605000Y-81565000D01*
X116155000Y-84485000D02*
G75*
G02*
X115935000Y-84285000I90000J320000D01*
G01*
%TO.C,U3*%
X123525000Y-71220000D02*
X120075000Y-71220000D01*
X123525000Y-71220000D02*
X125475000Y-71220000D01*
X123525000Y-81340000D02*
X121575000Y-81340000D01*
X123525000Y-81340000D02*
X125475000Y-81340000D01*
%TO.C,R14*%
X124665000Y-83803922D02*
X124665000Y-84321078D01*
X126085000Y-83803922D02*
X126085000Y-84321078D01*
%TO.C,R13*%
X122290000Y-83716422D02*
X122290000Y-84233578D01*
X123710000Y-83716422D02*
X123710000Y-84233578D01*
%TO.C,R12*%
X130310000Y-73608578D02*
X130310000Y-73091422D01*
X128890000Y-73608578D02*
X128890000Y-73091422D01*
%TO.C,R11*%
X128915000Y-77141422D02*
X128915000Y-77658578D01*
X130335000Y-77141422D02*
X130335000Y-77658578D01*
%TO.C,R7*%
X142808578Y-104790000D02*
X142291422Y-104790000D01*
X142808578Y-106210000D02*
X142291422Y-106210000D01*
%TO.C,R4*%
X116416422Y-59160000D02*
X116933578Y-59160000D01*
X116416422Y-57740000D02*
X116933578Y-57740000D01*
%TO.C,R3*%
X181996078Y-63540000D02*
X181478922Y-63540000D01*
X181996078Y-64960000D02*
X181478922Y-64960000D01*
%TO.C,R1*%
X167396078Y-54840000D02*
X166878922Y-54840000D01*
X167396078Y-56260000D02*
X166878922Y-56260000D01*
%TO.C,Q2*%
X138375000Y-82255000D02*
X138375000Y-78655000D01*
X138363478Y-78616522D02*
G75*
G03*
X133925000Y-80455000I-1838478J-1838478D01*
G01*
X138363478Y-82293478D02*
G75*
G02*
X133925000Y-80455000I-1838478J1838478D01*
G01*
D11*
%TO.C,J5*%
X181675000Y-104725000D02*
X181675000Y-114725000D01*
X171075000Y-104725000D02*
X181675000Y-104725000D01*
X171075000Y-114725000D02*
X171075000Y-104725000D01*
X181675000Y-114725000D02*
X171075000Y-114725000D01*
%TO.C,J4*%
X147940000Y-30275000D02*
X147940000Y-34375000D01*
X173340000Y-30275000D02*
X147940000Y-30275000D01*
X173340000Y-38475000D02*
X173340000Y-30275000D01*
X150480000Y-38475000D02*
X173340000Y-38475000D01*
%TO.C,J2*%
X114125000Y-30260000D02*
X110025000Y-30260000D01*
X114125000Y-55660000D02*
X114125000Y-30260000D01*
X105925000Y-55660000D02*
X114125000Y-55660000D01*
X105925000Y-32800000D02*
X105925000Y-55660000D01*
%TO.C,J1*%
X186600000Y-99865000D02*
X190700000Y-99865000D01*
X186600000Y-74465000D02*
X186600000Y-99865000D01*
X194800000Y-74465000D02*
X186600000Y-74465000D01*
X194800000Y-97325000D02*
X194800000Y-74465000D01*
D10*
%TO.C,FB1*%
X120537779Y-38565000D02*
X120212221Y-38565000D01*
X120537779Y-39585000D02*
X120212221Y-39585000D01*
%TO.C,F1*%
X118185000Y-38227064D02*
X118185000Y-37022936D01*
X115465000Y-38227064D02*
X115465000Y-37022936D01*
%TO.C,C26*%
X112140000Y-82941422D02*
X112140000Y-83458578D01*
X113560000Y-82941422D02*
X113560000Y-83458578D01*
%TO.C,C25*%
X115840000Y-86428922D02*
X115840000Y-86946078D01*
X117260000Y-86428922D02*
X117260000Y-86946078D01*
%TO.C,C24*%
X124960000Y-68583578D02*
X124960000Y-68066422D01*
X123540000Y-68583578D02*
X123540000Y-68066422D01*
%TO.C,C23*%
X127385000Y-68558578D02*
X127385000Y-68041422D01*
X125965000Y-68558578D02*
X125965000Y-68041422D01*
D11*
%TO.C,C18*%
X141225000Y-93925000D02*
G75*
G03*
X141225000Y-93925000I-100000J0D01*
G01*
D12*
X147925000Y-97925000D02*
X147925000Y-96395000D01*
X147925000Y-94155000D02*
X147925000Y-92625000D01*
X142625000Y-96395000D02*
X142625000Y-96825000D01*
X142625000Y-93725000D02*
X142625000Y-94155000D01*
X143725000Y-92625000D02*
X142625000Y-93725000D01*
X147925000Y-92625000D02*
X143725000Y-92625000D01*
X143725000Y-97925000D02*
X147925000Y-97925000D01*
X142625000Y-96825000D02*
X143725000Y-97925000D01*
D10*
%TO.C,C7*%
X164265000Y-83653922D02*
X164265000Y-84171078D01*
X165685000Y-83653922D02*
X165685000Y-84171078D01*
%TO.C,D2*%
X119935001Y-59555001D02*
X122620001Y-59555001D01*
X119935001Y-57635001D02*
X119935001Y-59555001D01*
X122620001Y-57635001D02*
X119935001Y-57635001D01*
%TO.C,SWD1*%
X190120000Y-57320000D02*
X191450000Y-57320000D01*
X190120000Y-58650000D02*
X190120000Y-57320000D01*
X190120000Y-59920000D02*
X192780000Y-59920000D01*
X192780000Y-59920000D02*
X192780000Y-72680000D01*
X190120000Y-59920000D02*
X190120000Y-72680000D01*
X190120000Y-72680000D02*
X192780000Y-72680000D01*
%TO.C,ESD1*%
X114775000Y-79360000D02*
X116575000Y-79360000D01*
X116575000Y-76140000D02*
X114125000Y-76140000D01*
%TO.C,C20*%
X146815000Y-72716422D02*
X146815000Y-73233578D01*
X148235000Y-72716422D02*
X148235000Y-73233578D01*
%TO.C,C21*%
X151235000Y-78341422D02*
X151235000Y-78858578D01*
X149815000Y-78341422D02*
X149815000Y-78858578D01*
%TO.C,D5*%
X147565000Y-53040000D02*
X147565000Y-55725000D01*
X149485000Y-53040000D02*
X147565000Y-53040000D01*
X149485000Y-55725000D02*
X149485000Y-53040000D01*
%TO.C,D6*%
X146160000Y-55712500D02*
X146160000Y-53027500D01*
X146160000Y-53027500D02*
X144240000Y-53027500D01*
X144240000Y-53027500D02*
X144240000Y-55712500D01*
%TO.C,D7*%
X140940000Y-53002500D02*
X140940000Y-55687500D01*
X142860000Y-53002500D02*
X140940000Y-53002500D01*
X142860000Y-55687500D02*
X142860000Y-53002500D01*
%TO.C,D8*%
X139535000Y-55700000D02*
X139535000Y-53015000D01*
X139535000Y-53015000D02*
X137615000Y-53015000D01*
X137615000Y-53015000D02*
X137615000Y-55700000D01*
%TO.C,R2*%
X151140000Y-50166422D02*
X151140000Y-50683578D01*
X152560000Y-50166422D02*
X152560000Y-50683578D01*
%TO.C,R5*%
X147815000Y-50166422D02*
X147815000Y-50683578D01*
X149235000Y-50166422D02*
X149235000Y-50683578D01*
%TO.C,R6*%
X145910000Y-50191422D02*
X145910000Y-50708578D01*
X144490000Y-50191422D02*
X144490000Y-50708578D01*
%TO.C,R15*%
X141190000Y-50216422D02*
X141190000Y-50733578D01*
X142610000Y-50216422D02*
X142610000Y-50733578D01*
%TO.C,R16*%
X139285000Y-50303922D02*
X139285000Y-50821078D01*
X137865000Y-50303922D02*
X137865000Y-50821078D01*
%TO.C,D1*%
X150890000Y-53027500D02*
X150890000Y-55712500D01*
X152810000Y-53027500D02*
X150890000Y-53027500D01*
X152810000Y-55712500D02*
X152810000Y-53027500D01*
%TO.C,R18*%
X139285000Y-45216422D02*
X139285000Y-45733578D01*
X137865000Y-45216422D02*
X137865000Y-45733578D01*
%TO.C,R21*%
X142585000Y-45683578D02*
X142585000Y-45166422D01*
X141165000Y-45683578D02*
X141165000Y-45166422D01*
%TO.C,D3*%
X108302000Y-63511000D02*
X105448000Y-63511000D01*
X108302000Y-67865000D02*
X108302000Y-63511000D01*
X105448000Y-67865000D02*
X108302000Y-67865000D01*
X105448000Y-63511000D02*
X105448000Y-67865000D01*
X107510000Y-58652200D02*
X106240000Y-58652200D01*
X106875000Y-57890200D02*
X106748000Y-58652200D01*
X106875000Y-57890200D02*
X106621000Y-58652200D01*
X106875000Y-57890200D02*
X106494000Y-58652200D01*
X106875000Y-57890200D02*
X106367000Y-58652200D01*
X106875000Y-57890200D02*
X106240000Y-58652200D01*
X106875000Y-57890200D02*
X107002000Y-58652200D01*
X106875000Y-57890200D02*
X107129000Y-58652200D01*
X106875000Y-57890200D02*
X107256000Y-58652200D01*
X106875000Y-57890200D02*
X107383000Y-58652200D01*
X106875000Y-57890200D02*
X107510000Y-58652200D01*
X107510000Y-57890200D02*
X106240000Y-57890200D01*
X106875000Y-58906200D02*
X106875000Y-57636200D01*
D11*
%TO.C,IC5*%
X135700000Y-99625000D02*
X133700000Y-99625000D01*
X135700000Y-100225000D02*
X135700000Y-99625000D01*
X119700000Y-99625000D02*
X119700000Y-100225000D01*
X121700000Y-99625000D02*
X119700000Y-99625000D01*
X119700000Y-123625000D02*
X119700000Y-116125000D01*
X135700000Y-123625000D02*
X119700000Y-123625000D01*
X135700000Y-116125000D02*
X135700000Y-123625000D01*
X137000000Y-115125000D02*
X137000000Y-115125000D01*
X137100000Y-115125000D02*
X137100000Y-115125000D01*
X137000000Y-115125000D02*
X137000000Y-115125000D01*
X137100000Y-115125000D02*
G75*
G02*
X137000000Y-115125000I-50000J0D01*
G01*
X137000000Y-115125000D02*
G75*
G02*
X137100000Y-115125000I50000J0D01*
G01*
X137100000Y-115125000D02*
G75*
G02*
X137000000Y-115125000I-50000J0D01*
G01*
D10*
%TO.C,J3*%
X134845900Y-50572000D02*
G75*
G03*
X134845900Y-50572000I-127000J0D01*
G01*
X132940900Y-54470900D02*
X132940900Y-46673100D01*
X121079100Y-54470900D02*
X132940900Y-54470900D01*
X121079100Y-46673100D02*
X121079100Y-54470900D01*
X132940900Y-46673100D02*
X121079100Y-46673100D01*
X132813900Y-54470900D02*
X121206100Y-54470900D01*
D13*
%TO.C,SW1*%
X175826000Y-31071000D02*
X175826000Y-33000000D01*
X188526000Y-31071000D02*
X175826000Y-31071000D01*
X188526000Y-33000000D02*
X188526000Y-31071000D01*
X175826000Y-37929000D02*
X175826000Y-36000000D01*
X188526000Y-37929000D02*
X175826000Y-37929000D01*
X188526000Y-36000000D02*
X188526000Y-37929000D01*
D11*
X189476000Y-34600000D02*
X189476000Y-34600000D01*
X189476000Y-34400000D02*
X189476000Y-34400000D01*
X189476000Y-34600000D02*
G75*
G02*
X189476000Y-34400000I0J100000D01*
G01*
X189476000Y-34400000D02*
G75*
G02*
X189476000Y-34600000I0J-100000D01*
G01*
%TO.C,SW2*%
X148650000Y-112275000D02*
G75*
G03*
X148650000Y-112275000I-200000J0D01*
G01*
D12*
X150100000Y-104775000D02*
X150100000Y-110775000D01*
X146600000Y-110775000D02*
X146600000Y-104775000D01*
%TO.C,SW3*%
X107875000Y-107025000D02*
X107875000Y-101025000D01*
X111375000Y-101025000D02*
X111375000Y-107025000D01*
D11*
X109925000Y-108525000D02*
G75*
G03*
X109925000Y-108525000I-200000J0D01*
G01*
D10*
%TO.C,U4*%
X123019100Y-31918499D02*
X123019100Y-40681499D01*
X134880900Y-31918499D02*
X123019100Y-31918499D01*
X134880900Y-40681499D02*
X134880900Y-31918499D01*
X123019100Y-40681499D02*
X134880900Y-40681499D01*
D13*
%TO.C,Y1*%
X149375000Y-73475000D02*
X149375000Y-73475000D01*
X149375000Y-73375000D02*
X149375000Y-73375000D01*
X149375000Y-73475000D02*
G75*
G02*
X149375000Y-73375000I0J50000D01*
G01*
X149375000Y-73375000D02*
G75*
G02*
X149375000Y-73475000I0J-50000D01*
G01*
D10*
%TO.C,J6*%
X108382340Y-82077600D02*
X108821661Y-82077600D01*
X108821661Y-74025800D02*
X108382340Y-74025800D01*
X106421460Y-74025800D02*
X105121099Y-74025800D01*
X105121099Y-82077600D02*
X106421460Y-82077600D01*
X105121099Y-74025800D02*
X105121099Y-82077600D01*
%TO.C,REF\u002A\u002A*%
D14*
X141666666Y-29927380D02*
X141333333Y-29451190D01*
X141095238Y-29927380D02*
X141095238Y-28927380D01*
X141476190Y-28927380D01*
X141571428Y-28975000D01*
X141619047Y-29022619D01*
X141666666Y-29117857D01*
X141666666Y-29260714D01*
X141619047Y-29355952D01*
X141571428Y-29403571D01*
X141476190Y-29451190D01*
X141095238Y-29451190D01*
X142095238Y-29403571D02*
X142428571Y-29403571D01*
X142571428Y-29927380D02*
X142095238Y-29927380D01*
X142095238Y-28927380D01*
X142571428Y-28927380D01*
X143333333Y-29403571D02*
X143000000Y-29403571D01*
X143000000Y-29927380D02*
X143000000Y-28927380D01*
X143476190Y-28927380D01*
X144000000Y-28927380D02*
X144000000Y-29165476D01*
X143761904Y-29070238D02*
X144000000Y-29165476D01*
X144238095Y-29070238D01*
X143857142Y-29355952D02*
X144000000Y-29165476D01*
X144142857Y-29355952D01*
X144761904Y-28927380D02*
X144761904Y-29165476D01*
X144523809Y-29070238D02*
X144761904Y-29165476D01*
X145000000Y-29070238D01*
X144619047Y-29355952D02*
X144761904Y-29165476D01*
X144904761Y-29355952D01*
X190641666Y-109052380D02*
X190308333Y-108576190D01*
X190070238Y-109052380D02*
X190070238Y-108052380D01*
X190451190Y-108052380D01*
X190546428Y-108100000D01*
X190594047Y-108147619D01*
X190641666Y-108242857D01*
X190641666Y-108385714D01*
X190594047Y-108480952D01*
X190546428Y-108528571D01*
X190451190Y-108576190D01*
X190070238Y-108576190D01*
X191070238Y-108528571D02*
X191403571Y-108528571D01*
X191546428Y-109052380D02*
X191070238Y-109052380D01*
X191070238Y-108052380D01*
X191546428Y-108052380D01*
X192308333Y-108528571D02*
X191975000Y-108528571D01*
X191975000Y-109052380D02*
X191975000Y-108052380D01*
X192451190Y-108052380D01*
X192975000Y-108052380D02*
X192975000Y-108290476D01*
X192736904Y-108195238D02*
X192975000Y-108290476D01*
X193213095Y-108195238D01*
X192832142Y-108480952D02*
X192975000Y-108290476D01*
X193117857Y-108480952D01*
X193736904Y-108052380D02*
X193736904Y-108290476D01*
X193498809Y-108195238D02*
X193736904Y-108290476D01*
X193975000Y-108195238D01*
X193594047Y-108480952D02*
X193736904Y-108290476D01*
X193879761Y-108480952D01*
X104591666Y-110402380D02*
X104258333Y-109926190D01*
X104020238Y-110402380D02*
X104020238Y-109402380D01*
X104401190Y-109402380D01*
X104496428Y-109450000D01*
X104544047Y-109497619D01*
X104591666Y-109592857D01*
X104591666Y-109735714D01*
X104544047Y-109830952D01*
X104496428Y-109878571D01*
X104401190Y-109926190D01*
X104020238Y-109926190D01*
X105020238Y-109878571D02*
X105353571Y-109878571D01*
X105496428Y-110402380D02*
X105020238Y-110402380D01*
X105020238Y-109402380D01*
X105496428Y-109402380D01*
X106258333Y-109878571D02*
X105925000Y-109878571D01*
X105925000Y-110402380D02*
X105925000Y-109402380D01*
X106401190Y-109402380D01*
X106925000Y-109402380D02*
X106925000Y-109640476D01*
X106686904Y-109545238D02*
X106925000Y-109640476D01*
X107163095Y-109545238D01*
X106782142Y-109830952D02*
X106925000Y-109640476D01*
X107067857Y-109830952D01*
X107686904Y-109402380D02*
X107686904Y-109640476D01*
X107448809Y-109545238D02*
X107686904Y-109640476D01*
X107925000Y-109545238D01*
X107544047Y-109830952D02*
X107686904Y-109640476D01*
X107829761Y-109830952D01*
%TO.C,R20*%
X161227380Y-84617857D02*
X160751190Y-84951190D01*
X161227380Y-85189285D02*
X160227380Y-85189285D01*
X160227380Y-84808333D01*
X160275000Y-84713095D01*
X160322619Y-84665476D01*
X160417857Y-84617857D01*
X160560714Y-84617857D01*
X160655952Y-84665476D01*
X160703571Y-84713095D01*
X160751190Y-84808333D01*
X160751190Y-85189285D01*
X160322619Y-84236904D02*
X160275000Y-84189285D01*
X160227380Y-84094047D01*
X160227380Y-83855952D01*
X160275000Y-83760714D01*
X160322619Y-83713095D01*
X160417857Y-83665476D01*
X160513095Y-83665476D01*
X160655952Y-83713095D01*
X161227380Y-84284523D01*
X161227380Y-83665476D01*
X160227380Y-83046428D02*
X160227380Y-82951190D01*
X160275000Y-82855952D01*
X160322619Y-82808333D01*
X160417857Y-82760714D01*
X160608333Y-82713095D01*
X160846428Y-82713095D01*
X161036904Y-82760714D01*
X161132142Y-82808333D01*
X161179761Y-82855952D01*
X161227380Y-82951190D01*
X161227380Y-83046428D01*
X161179761Y-83141666D01*
X161132142Y-83189285D01*
X161036904Y-83236904D01*
X160846428Y-83284523D01*
X160608333Y-83284523D01*
X160417857Y-83236904D01*
X160322619Y-83189285D01*
X160275000Y-83141666D01*
X160227380Y-83046428D01*
%TO.C,R19*%
X141732142Y-101577380D02*
X141398809Y-101101190D01*
X141160714Y-101577380D02*
X141160714Y-100577380D01*
X141541666Y-100577380D01*
X141636904Y-100625000D01*
X141684523Y-100672619D01*
X141732142Y-100767857D01*
X141732142Y-100910714D01*
X141684523Y-101005952D01*
X141636904Y-101053571D01*
X141541666Y-101101190D01*
X141160714Y-101101190D01*
X142684523Y-101577380D02*
X142113095Y-101577380D01*
X142398809Y-101577380D02*
X142398809Y-100577380D01*
X142303571Y-100720238D01*
X142208333Y-100815476D01*
X142113095Y-100863095D01*
X143160714Y-101577380D02*
X143351190Y-101577380D01*
X143446428Y-101529761D01*
X143494047Y-101482142D01*
X143589285Y-101339285D01*
X143636904Y-101148809D01*
X143636904Y-100767857D01*
X143589285Y-100672619D01*
X143541666Y-100625000D01*
X143446428Y-100577380D01*
X143255952Y-100577380D01*
X143160714Y-100625000D01*
X143113095Y-100672619D01*
X143065476Y-100767857D01*
X143065476Y-101005952D01*
X143113095Y-101101190D01*
X143160714Y-101148809D01*
X143255952Y-101196428D01*
X143446428Y-101196428D01*
X143541666Y-101148809D01*
X143589285Y-101101190D01*
X143636904Y-101005952D01*
%TO.C,R9*%
X140902380Y-114416666D02*
X140426190Y-114750000D01*
X140902380Y-114988095D02*
X139902380Y-114988095D01*
X139902380Y-114607142D01*
X139950000Y-114511904D01*
X139997619Y-114464285D01*
X140092857Y-114416666D01*
X140235714Y-114416666D01*
X140330952Y-114464285D01*
X140378571Y-114511904D01*
X140426190Y-114607142D01*
X140426190Y-114988095D01*
X140902380Y-113940476D02*
X140902380Y-113750000D01*
X140854761Y-113654761D01*
X140807142Y-113607142D01*
X140664285Y-113511904D01*
X140473809Y-113464285D01*
X140092857Y-113464285D01*
X139997619Y-113511904D01*
X139950000Y-113559523D01*
X139902380Y-113654761D01*
X139902380Y-113845238D01*
X139950000Y-113940476D01*
X139997619Y-113988095D01*
X140092857Y-114035714D01*
X140330952Y-114035714D01*
X140426190Y-113988095D01*
X140473809Y-113940476D01*
X140521428Y-113845238D01*
X140521428Y-113654761D01*
X140473809Y-113559523D01*
X140426190Y-113511904D01*
X140330952Y-113464285D01*
%TO.C,R8*%
X142395833Y-109677380D02*
X142062500Y-109201190D01*
X141824404Y-109677380D02*
X141824404Y-108677380D01*
X142205357Y-108677380D01*
X142300595Y-108725000D01*
X142348214Y-108772619D01*
X142395833Y-108867857D01*
X142395833Y-109010714D01*
X142348214Y-109105952D01*
X142300595Y-109153571D01*
X142205357Y-109201190D01*
X141824404Y-109201190D01*
X142967261Y-109105952D02*
X142872023Y-109058333D01*
X142824404Y-109010714D01*
X142776785Y-108915476D01*
X142776785Y-108867857D01*
X142824404Y-108772619D01*
X142872023Y-108725000D01*
X142967261Y-108677380D01*
X143157738Y-108677380D01*
X143252976Y-108725000D01*
X143300595Y-108772619D01*
X143348214Y-108867857D01*
X143348214Y-108915476D01*
X143300595Y-109010714D01*
X143252976Y-109058333D01*
X143157738Y-109105952D01*
X142967261Y-109105952D01*
X142872023Y-109153571D01*
X142824404Y-109201190D01*
X142776785Y-109296428D01*
X142776785Y-109486904D01*
X142824404Y-109582142D01*
X142872023Y-109629761D01*
X142967261Y-109677380D01*
X143157738Y-109677380D01*
X143252976Y-109629761D01*
X143300595Y-109582142D01*
X143348214Y-109486904D01*
X143348214Y-109296428D01*
X143300595Y-109201190D01*
X143252976Y-109153571D01*
X143157738Y-109105952D01*
%TO.C,C19*%
X145782142Y-116807142D02*
X145734523Y-116854761D01*
X145591666Y-116902380D01*
X145496428Y-116902380D01*
X145353571Y-116854761D01*
X145258333Y-116759523D01*
X145210714Y-116664285D01*
X145163095Y-116473809D01*
X145163095Y-116330952D01*
X145210714Y-116140476D01*
X145258333Y-116045238D01*
X145353571Y-115950000D01*
X145496428Y-115902380D01*
X145591666Y-115902380D01*
X145734523Y-115950000D01*
X145782142Y-115997619D01*
X146734523Y-116902380D02*
X146163095Y-116902380D01*
X146448809Y-116902380D02*
X146448809Y-115902380D01*
X146353571Y-116045238D01*
X146258333Y-116140476D01*
X146163095Y-116188095D01*
X147210714Y-116902380D02*
X147401190Y-116902380D01*
X147496428Y-116854761D01*
X147544047Y-116807142D01*
X147639285Y-116664285D01*
X147686904Y-116473809D01*
X147686904Y-116092857D01*
X147639285Y-115997619D01*
X147591666Y-115950000D01*
X147496428Y-115902380D01*
X147305952Y-115902380D01*
X147210714Y-115950000D01*
X147163095Y-115997619D01*
X147115476Y-116092857D01*
X147115476Y-116330952D01*
X147163095Y-116426190D01*
X147210714Y-116473809D01*
X147305952Y-116521428D01*
X147496428Y-116521428D01*
X147591666Y-116473809D01*
X147639285Y-116426190D01*
X147686904Y-116330952D01*
%TO.C,D4*%
X141786904Y-110552380D02*
X141786904Y-109552380D01*
X142025000Y-109552380D01*
X142167857Y-109600000D01*
X142263095Y-109695238D01*
X142310714Y-109790476D01*
X142358333Y-109980952D01*
X142358333Y-110123809D01*
X142310714Y-110314285D01*
X142263095Y-110409523D01*
X142167857Y-110504761D01*
X142025000Y-110552380D01*
X141786904Y-110552380D01*
X143215476Y-109885714D02*
X143215476Y-110552380D01*
X142977380Y-109504761D02*
X142739285Y-110219047D01*
X143358333Y-110219047D01*
%TO.C,U1*%
X164863095Y-57402380D02*
X164863095Y-58211904D01*
X164910714Y-58307142D01*
X164958333Y-58354761D01*
X165053571Y-58402380D01*
X165244047Y-58402380D01*
X165339285Y-58354761D01*
X165386904Y-58307142D01*
X165434523Y-58211904D01*
X165434523Y-57402380D01*
X166434523Y-58402380D02*
X165863095Y-58402380D01*
X166148809Y-58402380D02*
X166148809Y-57402380D01*
X166053571Y-57545238D01*
X165958333Y-57640476D01*
X165863095Y-57688095D01*
%TO.C,C17*%
X173132142Y-84880357D02*
X173179761Y-84927976D01*
X173227380Y-85070833D01*
X173227380Y-85166071D01*
X173179761Y-85308928D01*
X173084523Y-85404166D01*
X172989285Y-85451785D01*
X172798809Y-85499404D01*
X172655952Y-85499404D01*
X172465476Y-85451785D01*
X172370238Y-85404166D01*
X172275000Y-85308928D01*
X172227380Y-85166071D01*
X172227380Y-85070833D01*
X172275000Y-84927976D01*
X172322619Y-84880357D01*
X173227380Y-83927976D02*
X173227380Y-84499404D01*
X173227380Y-84213690D02*
X172227380Y-84213690D01*
X172370238Y-84308928D01*
X172465476Y-84404166D01*
X172513095Y-84499404D01*
X172227380Y-83594642D02*
X172227380Y-82927976D01*
X173227380Y-83356547D01*
%TO.C,C16*%
X182782142Y-61992857D02*
X182829761Y-62040476D01*
X182877380Y-62183333D01*
X182877380Y-62278571D01*
X182829761Y-62421428D01*
X182734523Y-62516666D01*
X182639285Y-62564285D01*
X182448809Y-62611904D01*
X182305952Y-62611904D01*
X182115476Y-62564285D01*
X182020238Y-62516666D01*
X181925000Y-62421428D01*
X181877380Y-62278571D01*
X181877380Y-62183333D01*
X181925000Y-62040476D01*
X181972619Y-61992857D01*
X182877380Y-61040476D02*
X182877380Y-61611904D01*
X182877380Y-61326190D02*
X181877380Y-61326190D01*
X182020238Y-61421428D01*
X182115476Y-61516666D01*
X182163095Y-61611904D01*
X181877380Y-60183333D02*
X181877380Y-60373809D01*
X181925000Y-60469047D01*
X181972619Y-60516666D01*
X182115476Y-60611904D01*
X182305952Y-60659523D01*
X182686904Y-60659523D01*
X182782142Y-60611904D01*
X182829761Y-60564285D01*
X182877380Y-60469047D01*
X182877380Y-60278571D01*
X182829761Y-60183333D01*
X182782142Y-60135714D01*
X182686904Y-60088095D01*
X182448809Y-60088095D01*
X182353571Y-60135714D01*
X182305952Y-60183333D01*
X182258333Y-60278571D01*
X182258333Y-60469047D01*
X182305952Y-60564285D01*
X182353571Y-60611904D01*
X182448809Y-60659523D01*
%TO.C,Q3*%
X133512619Y-74075238D02*
X133465000Y-74170476D01*
X133369761Y-74265714D01*
X133226904Y-74408571D01*
X133179285Y-74503809D01*
X133179285Y-74599047D01*
X133417380Y-74551428D02*
X133369761Y-74646666D01*
X133274523Y-74741904D01*
X133084047Y-74789523D01*
X132750714Y-74789523D01*
X132560238Y-74741904D01*
X132465000Y-74646666D01*
X132417380Y-74551428D01*
X132417380Y-74360952D01*
X132465000Y-74265714D01*
X132560238Y-74170476D01*
X132750714Y-74122857D01*
X133084047Y-74122857D01*
X133274523Y-74170476D01*
X133369761Y-74265714D01*
X133417380Y-74360952D01*
X133417380Y-74551428D01*
X132417380Y-73789523D02*
X132417380Y-73170476D01*
X132798333Y-73503809D01*
X132798333Y-73360952D01*
X132845952Y-73265714D01*
X132893571Y-73218095D01*
X132988809Y-73170476D01*
X133226904Y-73170476D01*
X133322142Y-73218095D01*
X133369761Y-73265714D01*
X133417380Y-73360952D01*
X133417380Y-73646666D01*
X133369761Y-73741904D01*
X133322142Y-73789523D01*
%TO.C,X1*%
X114965476Y-84877380D02*
X115632142Y-85877380D01*
X115632142Y-84877380D02*
X114965476Y-85877380D01*
X116536904Y-85877380D02*
X115965476Y-85877380D01*
X116251190Y-85877380D02*
X116251190Y-84877380D01*
X116155952Y-85020238D01*
X116060714Y-85115476D01*
X115965476Y-85163095D01*
%TO.C,U3*%
X122763095Y-69832380D02*
X122763095Y-70641904D01*
X122810714Y-70737142D01*
X122858333Y-70784761D01*
X122953571Y-70832380D01*
X123144047Y-70832380D01*
X123239285Y-70784761D01*
X123286904Y-70737142D01*
X123334523Y-70641904D01*
X123334523Y-69832380D01*
X123715476Y-69832380D02*
X124334523Y-69832380D01*
X124001190Y-70213333D01*
X124144047Y-70213333D01*
X124239285Y-70260952D01*
X124286904Y-70308571D01*
X124334523Y-70403809D01*
X124334523Y-70641904D01*
X124286904Y-70737142D01*
X124239285Y-70784761D01*
X124144047Y-70832380D01*
X123858333Y-70832380D01*
X123763095Y-70784761D01*
X123715476Y-70737142D01*
%TO.C,R14*%
X127477380Y-84705357D02*
X127001190Y-85038690D01*
X127477380Y-85276785D02*
X126477380Y-85276785D01*
X126477380Y-84895833D01*
X126525000Y-84800595D01*
X126572619Y-84752976D01*
X126667857Y-84705357D01*
X126810714Y-84705357D01*
X126905952Y-84752976D01*
X126953571Y-84800595D01*
X127001190Y-84895833D01*
X127001190Y-85276785D01*
X127477380Y-83752976D02*
X127477380Y-84324404D01*
X127477380Y-84038690D02*
X126477380Y-84038690D01*
X126620238Y-84133928D01*
X126715476Y-84229166D01*
X126763095Y-84324404D01*
X126810714Y-82895833D02*
X127477380Y-82895833D01*
X126429761Y-83133928D02*
X127144047Y-83372023D01*
X127144047Y-82752976D01*
%TO.C,R13*%
X125102380Y-84617857D02*
X124626190Y-84951190D01*
X125102380Y-85189285D02*
X124102380Y-85189285D01*
X124102380Y-84808333D01*
X124150000Y-84713095D01*
X124197619Y-84665476D01*
X124292857Y-84617857D01*
X124435714Y-84617857D01*
X124530952Y-84665476D01*
X124578571Y-84713095D01*
X124626190Y-84808333D01*
X124626190Y-85189285D01*
X125102380Y-83665476D02*
X125102380Y-84236904D01*
X125102380Y-83951190D02*
X124102380Y-83951190D01*
X124245238Y-84046428D01*
X124340476Y-84141666D01*
X124388095Y-84236904D01*
X124102380Y-83332142D02*
X124102380Y-82713095D01*
X124483333Y-83046428D01*
X124483333Y-82903571D01*
X124530952Y-82808333D01*
X124578571Y-82760714D01*
X124673809Y-82713095D01*
X124911904Y-82713095D01*
X125007142Y-82760714D01*
X125054761Y-82808333D01*
X125102380Y-82903571D01*
X125102380Y-83189285D01*
X125054761Y-83284523D01*
X125007142Y-83332142D01*
%TO.C,R12*%
X128402380Y-73992857D02*
X127926190Y-74326190D01*
X128402380Y-74564285D02*
X127402380Y-74564285D01*
X127402380Y-74183333D01*
X127450000Y-74088095D01*
X127497619Y-74040476D01*
X127592857Y-73992857D01*
X127735714Y-73992857D01*
X127830952Y-74040476D01*
X127878571Y-74088095D01*
X127926190Y-74183333D01*
X127926190Y-74564285D01*
X128402380Y-73040476D02*
X128402380Y-73611904D01*
X128402380Y-73326190D02*
X127402380Y-73326190D01*
X127545238Y-73421428D01*
X127640476Y-73516666D01*
X127688095Y-73611904D01*
X127497619Y-72659523D02*
X127450000Y-72611904D01*
X127402380Y-72516666D01*
X127402380Y-72278571D01*
X127450000Y-72183333D01*
X127497619Y-72135714D01*
X127592857Y-72088095D01*
X127688095Y-72088095D01*
X127830952Y-72135714D01*
X128402380Y-72707142D01*
X128402380Y-72088095D01*
%TO.C,R11*%
X131727380Y-78042857D02*
X131251190Y-78376190D01*
X131727380Y-78614285D02*
X130727380Y-78614285D01*
X130727380Y-78233333D01*
X130775000Y-78138095D01*
X130822619Y-78090476D01*
X130917857Y-78042857D01*
X131060714Y-78042857D01*
X131155952Y-78090476D01*
X131203571Y-78138095D01*
X131251190Y-78233333D01*
X131251190Y-78614285D01*
X131727380Y-77090476D02*
X131727380Y-77661904D01*
X131727380Y-77376190D02*
X130727380Y-77376190D01*
X130870238Y-77471428D01*
X130965476Y-77566666D01*
X131013095Y-77661904D01*
X131727380Y-76138095D02*
X131727380Y-76709523D01*
X131727380Y-76423809D02*
X130727380Y-76423809D01*
X130870238Y-76519047D01*
X130965476Y-76614285D01*
X131013095Y-76709523D01*
%TO.C,R7*%
X142383333Y-107602380D02*
X142050000Y-107126190D01*
X141811904Y-107602380D02*
X141811904Y-106602380D01*
X142192857Y-106602380D01*
X142288095Y-106650000D01*
X142335714Y-106697619D01*
X142383333Y-106792857D01*
X142383333Y-106935714D01*
X142335714Y-107030952D01*
X142288095Y-107078571D01*
X142192857Y-107126190D01*
X141811904Y-107126190D01*
X142716666Y-106602380D02*
X143383333Y-106602380D01*
X142954761Y-107602380D01*
%TO.C,R4*%
X116508333Y-57252380D02*
X116175000Y-56776190D01*
X115936904Y-57252380D02*
X115936904Y-56252380D01*
X116317857Y-56252380D01*
X116413095Y-56300000D01*
X116460714Y-56347619D01*
X116508333Y-56442857D01*
X116508333Y-56585714D01*
X116460714Y-56680952D01*
X116413095Y-56728571D01*
X116317857Y-56776190D01*
X115936904Y-56776190D01*
X117365476Y-56585714D02*
X117365476Y-57252380D01*
X117127380Y-56204761D02*
X116889285Y-56919047D01*
X117508333Y-56919047D01*
%TO.C,R3*%
X181570833Y-66352380D02*
X181237500Y-65876190D01*
X180999404Y-66352380D02*
X180999404Y-65352380D01*
X181380357Y-65352380D01*
X181475595Y-65400000D01*
X181523214Y-65447619D01*
X181570833Y-65542857D01*
X181570833Y-65685714D01*
X181523214Y-65780952D01*
X181475595Y-65828571D01*
X181380357Y-65876190D01*
X180999404Y-65876190D01*
X181904166Y-65352380D02*
X182523214Y-65352380D01*
X182189880Y-65733333D01*
X182332738Y-65733333D01*
X182427976Y-65780952D01*
X182475595Y-65828571D01*
X182523214Y-65923809D01*
X182523214Y-66161904D01*
X182475595Y-66257142D01*
X182427976Y-66304761D01*
X182332738Y-66352380D01*
X182047023Y-66352380D01*
X181951785Y-66304761D01*
X181904166Y-66257142D01*
%TO.C,R1*%
X166970833Y-57652380D02*
X166637500Y-57176190D01*
X166399404Y-57652380D02*
X166399404Y-56652380D01*
X166780357Y-56652380D01*
X166875595Y-56700000D01*
X166923214Y-56747619D01*
X166970833Y-56842857D01*
X166970833Y-56985714D01*
X166923214Y-57080952D01*
X166875595Y-57128571D01*
X166780357Y-57176190D01*
X166399404Y-57176190D01*
X167923214Y-57652380D02*
X167351785Y-57652380D01*
X167637500Y-57652380D02*
X167637500Y-56652380D01*
X167542261Y-56795238D01*
X167447023Y-56890476D01*
X167351785Y-56938095D01*
%TO.C,Q2*%
X133512619Y-80550238D02*
X133465000Y-80645476D01*
X133369761Y-80740714D01*
X133226904Y-80883571D01*
X133179285Y-80978809D01*
X133179285Y-81074047D01*
X133417380Y-81026428D02*
X133369761Y-81121666D01*
X133274523Y-81216904D01*
X133084047Y-81264523D01*
X132750714Y-81264523D01*
X132560238Y-81216904D01*
X132465000Y-81121666D01*
X132417380Y-81026428D01*
X132417380Y-80835952D01*
X132465000Y-80740714D01*
X132560238Y-80645476D01*
X132750714Y-80597857D01*
X133084047Y-80597857D01*
X133274523Y-80645476D01*
X133369761Y-80740714D01*
X133417380Y-80835952D01*
X133417380Y-81026428D01*
X132512619Y-80216904D02*
X132465000Y-80169285D01*
X132417380Y-80074047D01*
X132417380Y-79835952D01*
X132465000Y-79740714D01*
X132512619Y-79693095D01*
X132607857Y-79645476D01*
X132703095Y-79645476D01*
X132845952Y-79693095D01*
X133417380Y-80264523D01*
X133417380Y-79645476D01*
%TO.C,J5*%
D15*
X175951666Y-109029523D02*
X175951666Y-109936666D01*
X175891190Y-110118095D01*
X175770238Y-110239047D01*
X175588809Y-110299523D01*
X175467857Y-110299523D01*
X177161190Y-109029523D02*
X176556428Y-109029523D01*
X176495952Y-109634285D01*
X176556428Y-109573809D01*
X176677380Y-109513333D01*
X176979761Y-109513333D01*
X177100714Y-109573809D01*
X177161190Y-109634285D01*
X177221666Y-109755238D01*
X177221666Y-110057619D01*
X177161190Y-110178571D01*
X177100714Y-110239047D01*
X176979761Y-110299523D01*
X176677380Y-110299523D01*
X176556428Y-110239047D01*
X176495952Y-110178571D01*
%TO.C,J4*%
X150056666Y-33679523D02*
X150056666Y-34586666D01*
X149996190Y-34768095D01*
X149875238Y-34889047D01*
X149693809Y-34949523D01*
X149572857Y-34949523D01*
X151205714Y-34102857D02*
X151205714Y-34949523D01*
X150903333Y-33619047D02*
X150600952Y-34526190D01*
X151387142Y-34526190D01*
%TO.C,J2*%
X109329523Y-33223333D02*
X110236666Y-33223333D01*
X110418095Y-33283809D01*
X110539047Y-33404761D01*
X110599523Y-33586190D01*
X110599523Y-33707142D01*
X109450476Y-32679047D02*
X109390000Y-32618571D01*
X109329523Y-32497619D01*
X109329523Y-32195238D01*
X109390000Y-32074285D01*
X109450476Y-32013809D01*
X109571428Y-31953333D01*
X109692380Y-31953333D01*
X109873809Y-32013809D01*
X110599523Y-32739523D01*
X110599523Y-31953333D01*
%TO.C,J1*%
X190004523Y-97748333D02*
X190911666Y-97748333D01*
X191093095Y-97808809D01*
X191214047Y-97929761D01*
X191274523Y-98111190D01*
X191274523Y-98232142D01*
X191274523Y-96478333D02*
X191274523Y-97204047D01*
X191274523Y-96841190D02*
X190004523Y-96841190D01*
X190185952Y-96962142D01*
X190306904Y-97083095D01*
X190367380Y-97204047D01*
%TO.C,FB1*%
D14*
X119541666Y-40433571D02*
X119208333Y-40433571D01*
X119208333Y-40957380D02*
X119208333Y-39957380D01*
X119684523Y-39957380D01*
X120398809Y-40433571D02*
X120541666Y-40481190D01*
X120589285Y-40528809D01*
X120636904Y-40624047D01*
X120636904Y-40766904D01*
X120589285Y-40862142D01*
X120541666Y-40909761D01*
X120446428Y-40957380D01*
X120065476Y-40957380D01*
X120065476Y-39957380D01*
X120398809Y-39957380D01*
X120494047Y-40005000D01*
X120541666Y-40052619D01*
X120589285Y-40147857D01*
X120589285Y-40243095D01*
X120541666Y-40338333D01*
X120494047Y-40385952D01*
X120398809Y-40433571D01*
X120065476Y-40433571D01*
X121589285Y-40957380D02*
X121017857Y-40957380D01*
X121303571Y-40957380D02*
X121303571Y-39957380D01*
X121208333Y-40100238D01*
X121113095Y-40195476D01*
X121017857Y-40243095D01*
%TO.C,F1*%
X114473571Y-37958333D02*
X114473571Y-38291666D01*
X114997380Y-38291666D02*
X113997380Y-38291666D01*
X113997380Y-37815476D01*
X114997380Y-36910714D02*
X114997380Y-37482142D01*
X114997380Y-37196428D02*
X113997380Y-37196428D01*
X114140238Y-37291666D01*
X114235476Y-37386904D01*
X114283095Y-37482142D01*
%TO.C,C26*%
X114857142Y-83842857D02*
X114904761Y-83890476D01*
X114952380Y-84033333D01*
X114952380Y-84128571D01*
X114904761Y-84271428D01*
X114809523Y-84366666D01*
X114714285Y-84414285D01*
X114523809Y-84461904D01*
X114380952Y-84461904D01*
X114190476Y-84414285D01*
X114095238Y-84366666D01*
X114000000Y-84271428D01*
X113952380Y-84128571D01*
X113952380Y-84033333D01*
X114000000Y-83890476D01*
X114047619Y-83842857D01*
X114047619Y-83461904D02*
X114000000Y-83414285D01*
X113952380Y-83319047D01*
X113952380Y-83080952D01*
X114000000Y-82985714D01*
X114047619Y-82938095D01*
X114142857Y-82890476D01*
X114238095Y-82890476D01*
X114380952Y-82938095D01*
X114952380Y-83509523D01*
X114952380Y-82890476D01*
X113952380Y-82033333D02*
X113952380Y-82223809D01*
X114000000Y-82319047D01*
X114047619Y-82366666D01*
X114190476Y-82461904D01*
X114380952Y-82509523D01*
X114761904Y-82509523D01*
X114857142Y-82461904D01*
X114904761Y-82414285D01*
X114952380Y-82319047D01*
X114952380Y-82128571D01*
X114904761Y-82033333D01*
X114857142Y-81985714D01*
X114761904Y-81938095D01*
X114523809Y-81938095D01*
X114428571Y-81985714D01*
X114380952Y-82033333D01*
X114333333Y-82128571D01*
X114333333Y-82319047D01*
X114380952Y-82414285D01*
X114428571Y-82461904D01*
X114523809Y-82509523D01*
%TO.C,C25*%
X118557142Y-87330357D02*
X118604761Y-87377976D01*
X118652380Y-87520833D01*
X118652380Y-87616071D01*
X118604761Y-87758928D01*
X118509523Y-87854166D01*
X118414285Y-87901785D01*
X118223809Y-87949404D01*
X118080952Y-87949404D01*
X117890476Y-87901785D01*
X117795238Y-87854166D01*
X117700000Y-87758928D01*
X117652380Y-87616071D01*
X117652380Y-87520833D01*
X117700000Y-87377976D01*
X117747619Y-87330357D01*
X117747619Y-86949404D02*
X117700000Y-86901785D01*
X117652380Y-86806547D01*
X117652380Y-86568452D01*
X117700000Y-86473214D01*
X117747619Y-86425595D01*
X117842857Y-86377976D01*
X117938095Y-86377976D01*
X118080952Y-86425595D01*
X118652380Y-86997023D01*
X118652380Y-86377976D01*
X117652380Y-85473214D02*
X117652380Y-85949404D01*
X118128571Y-85997023D01*
X118080952Y-85949404D01*
X118033333Y-85854166D01*
X118033333Y-85616071D01*
X118080952Y-85520833D01*
X118128571Y-85473214D01*
X118223809Y-85425595D01*
X118461904Y-85425595D01*
X118557142Y-85473214D01*
X118604761Y-85520833D01*
X118652380Y-85616071D01*
X118652380Y-85854166D01*
X118604761Y-85949404D01*
X118557142Y-85997023D01*
%TO.C,C24*%
X122957142Y-68967857D02*
X123004761Y-69015476D01*
X123052380Y-69158333D01*
X123052380Y-69253571D01*
X123004761Y-69396428D01*
X122909523Y-69491666D01*
X122814285Y-69539285D01*
X122623809Y-69586904D01*
X122480952Y-69586904D01*
X122290476Y-69539285D01*
X122195238Y-69491666D01*
X122100000Y-69396428D01*
X122052380Y-69253571D01*
X122052380Y-69158333D01*
X122100000Y-69015476D01*
X122147619Y-68967857D01*
X122147619Y-68586904D02*
X122100000Y-68539285D01*
X122052380Y-68444047D01*
X122052380Y-68205952D01*
X122100000Y-68110714D01*
X122147619Y-68063095D01*
X122242857Y-68015476D01*
X122338095Y-68015476D01*
X122480952Y-68063095D01*
X123052380Y-68634523D01*
X123052380Y-68015476D01*
X122385714Y-67158333D02*
X123052380Y-67158333D01*
X122004761Y-67396428D02*
X122719047Y-67634523D01*
X122719047Y-67015476D01*
%TO.C,C23*%
X125382142Y-68942857D02*
X125429761Y-68990476D01*
X125477380Y-69133333D01*
X125477380Y-69228571D01*
X125429761Y-69371428D01*
X125334523Y-69466666D01*
X125239285Y-69514285D01*
X125048809Y-69561904D01*
X124905952Y-69561904D01*
X124715476Y-69514285D01*
X124620238Y-69466666D01*
X124525000Y-69371428D01*
X124477380Y-69228571D01*
X124477380Y-69133333D01*
X124525000Y-68990476D01*
X124572619Y-68942857D01*
X124572619Y-68561904D02*
X124525000Y-68514285D01*
X124477380Y-68419047D01*
X124477380Y-68180952D01*
X124525000Y-68085714D01*
X124572619Y-68038095D01*
X124667857Y-67990476D01*
X124763095Y-67990476D01*
X124905952Y-68038095D01*
X125477380Y-68609523D01*
X125477380Y-67990476D01*
X124477380Y-67657142D02*
X124477380Y-67038095D01*
X124858333Y-67371428D01*
X124858333Y-67228571D01*
X124905952Y-67133333D01*
X124953571Y-67085714D01*
X125048809Y-67038095D01*
X125286904Y-67038095D01*
X125382142Y-67085714D01*
X125429761Y-67133333D01*
X125477380Y-67228571D01*
X125477380Y-67514285D01*
X125429761Y-67609523D01*
X125382142Y-67657142D01*
%TO.C,C18*%
X145757142Y-91597142D02*
X145709523Y-91644761D01*
X145566666Y-91692380D01*
X145471428Y-91692380D01*
X145328571Y-91644761D01*
X145233333Y-91549523D01*
X145185714Y-91454285D01*
X145138095Y-91263809D01*
X145138095Y-91120952D01*
X145185714Y-90930476D01*
X145233333Y-90835238D01*
X145328571Y-90740000D01*
X145471428Y-90692380D01*
X145566666Y-90692380D01*
X145709523Y-90740000D01*
X145757142Y-90787619D01*
X146709523Y-91692380D02*
X146138095Y-91692380D01*
X146423809Y-91692380D02*
X146423809Y-90692380D01*
X146328571Y-90835238D01*
X146233333Y-90930476D01*
X146138095Y-90978095D01*
X147280952Y-91120952D02*
X147185714Y-91073333D01*
X147138095Y-91025714D01*
X147090476Y-90930476D01*
X147090476Y-90882857D01*
X147138095Y-90787619D01*
X147185714Y-90740000D01*
X147280952Y-90692380D01*
X147471428Y-90692380D01*
X147566666Y-90740000D01*
X147614285Y-90787619D01*
X147661904Y-90882857D01*
X147661904Y-90930476D01*
X147614285Y-91025714D01*
X147566666Y-91073333D01*
X147471428Y-91120952D01*
X147280952Y-91120952D01*
X147185714Y-91168571D01*
X147138095Y-91216190D01*
X147090476Y-91311428D01*
X147090476Y-91501904D01*
X147138095Y-91597142D01*
X147185714Y-91644761D01*
X147280952Y-91692380D01*
X147471428Y-91692380D01*
X147566666Y-91644761D01*
X147614285Y-91597142D01*
X147661904Y-91501904D01*
X147661904Y-91311428D01*
X147614285Y-91216190D01*
X147566666Y-91168571D01*
X147471428Y-91120952D01*
%TO.C,C7*%
X166982142Y-84079166D02*
X167029761Y-84126785D01*
X167077380Y-84269642D01*
X167077380Y-84364880D01*
X167029761Y-84507738D01*
X166934523Y-84602976D01*
X166839285Y-84650595D01*
X166648809Y-84698214D01*
X166505952Y-84698214D01*
X166315476Y-84650595D01*
X166220238Y-84602976D01*
X166125000Y-84507738D01*
X166077380Y-84364880D01*
X166077380Y-84269642D01*
X166125000Y-84126785D01*
X166172619Y-84079166D01*
X166077380Y-83745833D02*
X166077380Y-83079166D01*
X167077380Y-83507738D01*
%TO.C,D2*%
X120881905Y-57397381D02*
X120881905Y-56397381D01*
X121120001Y-56397381D01*
X121262858Y-56445001D01*
X121358096Y-56540239D01*
X121405715Y-56635477D01*
X121453334Y-56825953D01*
X121453334Y-56968810D01*
X121405715Y-57159286D01*
X121358096Y-57254524D01*
X121262858Y-57349762D01*
X121120001Y-57397381D01*
X120881905Y-57397381D01*
X121834286Y-56492620D02*
X121881905Y-56445001D01*
X121977143Y-56397381D01*
X122215239Y-56397381D01*
X122310477Y-56445001D01*
X122358096Y-56492620D01*
X122405715Y-56587858D01*
X122405715Y-56683096D01*
X122358096Y-56825953D01*
X121786667Y-57397381D01*
X122405715Y-57397381D01*
%TO.C,SWD1*%
X189616666Y-56724761D02*
X189759523Y-56772380D01*
X189997619Y-56772380D01*
X190092857Y-56724761D01*
X190140476Y-56677142D01*
X190188095Y-56581904D01*
X190188095Y-56486666D01*
X190140476Y-56391428D01*
X190092857Y-56343809D01*
X189997619Y-56296190D01*
X189807142Y-56248571D01*
X189711904Y-56200952D01*
X189664285Y-56153333D01*
X189616666Y-56058095D01*
X189616666Y-55962857D01*
X189664285Y-55867619D01*
X189711904Y-55820000D01*
X189807142Y-55772380D01*
X190045238Y-55772380D01*
X190188095Y-55820000D01*
X190521428Y-55772380D02*
X190759523Y-56772380D01*
X190950000Y-56058095D01*
X191140476Y-56772380D01*
X191378571Y-55772380D01*
X191759523Y-56772380D02*
X191759523Y-55772380D01*
X191997619Y-55772380D01*
X192140476Y-55820000D01*
X192235714Y-55915238D01*
X192283333Y-56010476D01*
X192330952Y-56200952D01*
X192330952Y-56343809D01*
X192283333Y-56534285D01*
X192235714Y-56629523D01*
X192140476Y-56724761D01*
X191997619Y-56772380D01*
X191759523Y-56772380D01*
X193283333Y-56772380D02*
X192711904Y-56772380D01*
X192997619Y-56772380D02*
X192997619Y-55772380D01*
X192902380Y-55915238D01*
X192807142Y-56010476D01*
X192711904Y-56058095D01*
%TO.C,ESD1*%
X114008333Y-74778571D02*
X114341666Y-74778571D01*
X114484523Y-75302380D02*
X114008333Y-75302380D01*
X114008333Y-74302380D01*
X114484523Y-74302380D01*
X114865476Y-75254761D02*
X115008333Y-75302380D01*
X115246428Y-75302380D01*
X115341666Y-75254761D01*
X115389285Y-75207142D01*
X115436904Y-75111904D01*
X115436904Y-75016666D01*
X115389285Y-74921428D01*
X115341666Y-74873809D01*
X115246428Y-74826190D01*
X115055952Y-74778571D01*
X114960714Y-74730952D01*
X114913095Y-74683333D01*
X114865476Y-74588095D01*
X114865476Y-74492857D01*
X114913095Y-74397619D01*
X114960714Y-74350000D01*
X115055952Y-74302380D01*
X115294047Y-74302380D01*
X115436904Y-74350000D01*
X115865476Y-75302380D02*
X115865476Y-74302380D01*
X116103571Y-74302380D01*
X116246428Y-74350000D01*
X116341666Y-74445238D01*
X116389285Y-74540476D01*
X116436904Y-74730952D01*
X116436904Y-74873809D01*
X116389285Y-75064285D01*
X116341666Y-75159523D01*
X116246428Y-75254761D01*
X116103571Y-75302380D01*
X115865476Y-75302380D01*
X117389285Y-75302380D02*
X116817857Y-75302380D01*
X117103571Y-75302380D02*
X117103571Y-74302380D01*
X117008333Y-74445238D01*
X116913095Y-74540476D01*
X116817857Y-74588095D01*
%TO.C,C20*%
X149532142Y-73617857D02*
X149579761Y-73665476D01*
X149627380Y-73808333D01*
X149627380Y-73903571D01*
X149579761Y-74046428D01*
X149484523Y-74141666D01*
X149389285Y-74189285D01*
X149198809Y-74236904D01*
X149055952Y-74236904D01*
X148865476Y-74189285D01*
X148770238Y-74141666D01*
X148675000Y-74046428D01*
X148627380Y-73903571D01*
X148627380Y-73808333D01*
X148675000Y-73665476D01*
X148722619Y-73617857D01*
X148722619Y-73236904D02*
X148675000Y-73189285D01*
X148627380Y-73094047D01*
X148627380Y-72855952D01*
X148675000Y-72760714D01*
X148722619Y-72713095D01*
X148817857Y-72665476D01*
X148913095Y-72665476D01*
X149055952Y-72713095D01*
X149627380Y-73284523D01*
X149627380Y-72665476D01*
X148627380Y-72046428D02*
X148627380Y-71951190D01*
X148675000Y-71855952D01*
X148722619Y-71808333D01*
X148817857Y-71760714D01*
X149008333Y-71713095D01*
X149246428Y-71713095D01*
X149436904Y-71760714D01*
X149532142Y-71808333D01*
X149579761Y-71855952D01*
X149627380Y-71951190D01*
X149627380Y-72046428D01*
X149579761Y-72141666D01*
X149532142Y-72189285D01*
X149436904Y-72236904D01*
X149246428Y-72284523D01*
X149008333Y-72284523D01*
X148817857Y-72236904D01*
X148722619Y-72189285D01*
X148675000Y-72141666D01*
X148627380Y-72046428D01*
%TO.C,C21*%
X152532142Y-79242857D02*
X152579761Y-79290476D01*
X152627380Y-79433333D01*
X152627380Y-79528571D01*
X152579761Y-79671428D01*
X152484523Y-79766666D01*
X152389285Y-79814285D01*
X152198809Y-79861904D01*
X152055952Y-79861904D01*
X151865476Y-79814285D01*
X151770238Y-79766666D01*
X151675000Y-79671428D01*
X151627380Y-79528571D01*
X151627380Y-79433333D01*
X151675000Y-79290476D01*
X151722619Y-79242857D01*
X151722619Y-78861904D02*
X151675000Y-78814285D01*
X151627380Y-78719047D01*
X151627380Y-78480952D01*
X151675000Y-78385714D01*
X151722619Y-78338095D01*
X151817857Y-78290476D01*
X151913095Y-78290476D01*
X152055952Y-78338095D01*
X152627380Y-78909523D01*
X152627380Y-78290476D01*
X152627380Y-77338095D02*
X152627380Y-77909523D01*
X152627380Y-77623809D02*
X151627380Y-77623809D01*
X151770238Y-77719047D01*
X151865476Y-77814285D01*
X151913095Y-77909523D01*
%TO.C,D5*%
X150627380Y-55463095D02*
X149627380Y-55463095D01*
X149627380Y-55225000D01*
X149675000Y-55082142D01*
X149770238Y-54986904D01*
X149865476Y-54939285D01*
X150055952Y-54891666D01*
X150198809Y-54891666D01*
X150389285Y-54939285D01*
X150484523Y-54986904D01*
X150579761Y-55082142D01*
X150627380Y-55225000D01*
X150627380Y-55463095D01*
X149627380Y-53986904D02*
X149627380Y-54463095D01*
X150103571Y-54510714D01*
X150055952Y-54463095D01*
X150008333Y-54367857D01*
X150008333Y-54129761D01*
X150055952Y-54034523D01*
X150103571Y-53986904D01*
X150198809Y-53939285D01*
X150436904Y-53939285D01*
X150532142Y-53986904D01*
X150579761Y-54034523D01*
X150627380Y-54129761D01*
X150627380Y-54367857D01*
X150579761Y-54463095D01*
X150532142Y-54510714D01*
%TO.C,D6*%
X147302380Y-55450595D02*
X146302380Y-55450595D01*
X146302380Y-55212500D01*
X146350000Y-55069642D01*
X146445238Y-54974404D01*
X146540476Y-54926785D01*
X146730952Y-54879166D01*
X146873809Y-54879166D01*
X147064285Y-54926785D01*
X147159523Y-54974404D01*
X147254761Y-55069642D01*
X147302380Y-55212500D01*
X147302380Y-55450595D01*
X146302380Y-54022023D02*
X146302380Y-54212500D01*
X146350000Y-54307738D01*
X146397619Y-54355357D01*
X146540476Y-54450595D01*
X146730952Y-54498214D01*
X147111904Y-54498214D01*
X147207142Y-54450595D01*
X147254761Y-54402976D01*
X147302380Y-54307738D01*
X147302380Y-54117261D01*
X147254761Y-54022023D01*
X147207142Y-53974404D01*
X147111904Y-53926785D01*
X146873809Y-53926785D01*
X146778571Y-53974404D01*
X146730952Y-54022023D01*
X146683333Y-54117261D01*
X146683333Y-54307738D01*
X146730952Y-54402976D01*
X146778571Y-54450595D01*
X146873809Y-54498214D01*
%TO.C,D7*%
X144002380Y-55425595D02*
X143002380Y-55425595D01*
X143002380Y-55187500D01*
X143050000Y-55044642D01*
X143145238Y-54949404D01*
X143240476Y-54901785D01*
X143430952Y-54854166D01*
X143573809Y-54854166D01*
X143764285Y-54901785D01*
X143859523Y-54949404D01*
X143954761Y-55044642D01*
X144002380Y-55187500D01*
X144002380Y-55425595D01*
X143002380Y-54520833D02*
X143002380Y-53854166D01*
X144002380Y-54282738D01*
%TO.C,D8*%
X140677380Y-55438095D02*
X139677380Y-55438095D01*
X139677380Y-55200000D01*
X139725000Y-55057142D01*
X139820238Y-54961904D01*
X139915476Y-54914285D01*
X140105952Y-54866666D01*
X140248809Y-54866666D01*
X140439285Y-54914285D01*
X140534523Y-54961904D01*
X140629761Y-55057142D01*
X140677380Y-55200000D01*
X140677380Y-55438095D01*
X140105952Y-54295238D02*
X140058333Y-54390476D01*
X140010714Y-54438095D01*
X139915476Y-54485714D01*
X139867857Y-54485714D01*
X139772619Y-54438095D01*
X139725000Y-54390476D01*
X139677380Y-54295238D01*
X139677380Y-54104761D01*
X139725000Y-54009523D01*
X139772619Y-53961904D01*
X139867857Y-53914285D01*
X139915476Y-53914285D01*
X140010714Y-53961904D01*
X140058333Y-54009523D01*
X140105952Y-54104761D01*
X140105952Y-54295238D01*
X140153571Y-54390476D01*
X140201190Y-54438095D01*
X140296428Y-54485714D01*
X140486904Y-54485714D01*
X140582142Y-54438095D01*
X140629761Y-54390476D01*
X140677380Y-54295238D01*
X140677380Y-54104761D01*
X140629761Y-54009523D01*
X140582142Y-53961904D01*
X140486904Y-53914285D01*
X140296428Y-53914285D01*
X140201190Y-53961904D01*
X140153571Y-54009523D01*
X140105952Y-54104761D01*
%TO.C,R2*%
X153952380Y-50591666D02*
X153476190Y-50925000D01*
X153952380Y-51163095D02*
X152952380Y-51163095D01*
X152952380Y-50782142D01*
X153000000Y-50686904D01*
X153047619Y-50639285D01*
X153142857Y-50591666D01*
X153285714Y-50591666D01*
X153380952Y-50639285D01*
X153428571Y-50686904D01*
X153476190Y-50782142D01*
X153476190Y-51163095D01*
X153047619Y-50210714D02*
X153000000Y-50163095D01*
X152952380Y-50067857D01*
X152952380Y-49829761D01*
X153000000Y-49734523D01*
X153047619Y-49686904D01*
X153142857Y-49639285D01*
X153238095Y-49639285D01*
X153380952Y-49686904D01*
X153952380Y-50258333D01*
X153952380Y-49639285D01*
%TO.C,R5*%
X150627380Y-50591666D02*
X150151190Y-50925000D01*
X150627380Y-51163095D02*
X149627380Y-51163095D01*
X149627380Y-50782142D01*
X149675000Y-50686904D01*
X149722619Y-50639285D01*
X149817857Y-50591666D01*
X149960714Y-50591666D01*
X150055952Y-50639285D01*
X150103571Y-50686904D01*
X150151190Y-50782142D01*
X150151190Y-51163095D01*
X149627380Y-49686904D02*
X149627380Y-50163095D01*
X150103571Y-50210714D01*
X150055952Y-50163095D01*
X150008333Y-50067857D01*
X150008333Y-49829761D01*
X150055952Y-49734523D01*
X150103571Y-49686904D01*
X150198809Y-49639285D01*
X150436904Y-49639285D01*
X150532142Y-49686904D01*
X150579761Y-49734523D01*
X150627380Y-49829761D01*
X150627380Y-50067857D01*
X150579761Y-50163095D01*
X150532142Y-50210714D01*
%TO.C,R6*%
X147302380Y-50616666D02*
X146826190Y-50950000D01*
X147302380Y-51188095D02*
X146302380Y-51188095D01*
X146302380Y-50807142D01*
X146350000Y-50711904D01*
X146397619Y-50664285D01*
X146492857Y-50616666D01*
X146635714Y-50616666D01*
X146730952Y-50664285D01*
X146778571Y-50711904D01*
X146826190Y-50807142D01*
X146826190Y-51188095D01*
X146302380Y-49759523D02*
X146302380Y-49950000D01*
X146350000Y-50045238D01*
X146397619Y-50092857D01*
X146540476Y-50188095D01*
X146730952Y-50235714D01*
X147111904Y-50235714D01*
X147207142Y-50188095D01*
X147254761Y-50140476D01*
X147302380Y-50045238D01*
X147302380Y-49854761D01*
X147254761Y-49759523D01*
X147207142Y-49711904D01*
X147111904Y-49664285D01*
X146873809Y-49664285D01*
X146778571Y-49711904D01*
X146730952Y-49759523D01*
X146683333Y-49854761D01*
X146683333Y-50045238D01*
X146730952Y-50140476D01*
X146778571Y-50188095D01*
X146873809Y-50235714D01*
%TO.C,R15*%
X144002380Y-51117857D02*
X143526190Y-51451190D01*
X144002380Y-51689285D02*
X143002380Y-51689285D01*
X143002380Y-51308333D01*
X143050000Y-51213095D01*
X143097619Y-51165476D01*
X143192857Y-51117857D01*
X143335714Y-51117857D01*
X143430952Y-51165476D01*
X143478571Y-51213095D01*
X143526190Y-51308333D01*
X143526190Y-51689285D01*
X144002380Y-50165476D02*
X144002380Y-50736904D01*
X144002380Y-50451190D02*
X143002380Y-50451190D01*
X143145238Y-50546428D01*
X143240476Y-50641666D01*
X143288095Y-50736904D01*
X143002380Y-49260714D02*
X143002380Y-49736904D01*
X143478571Y-49784523D01*
X143430952Y-49736904D01*
X143383333Y-49641666D01*
X143383333Y-49403571D01*
X143430952Y-49308333D01*
X143478571Y-49260714D01*
X143573809Y-49213095D01*
X143811904Y-49213095D01*
X143907142Y-49260714D01*
X143954761Y-49308333D01*
X144002380Y-49403571D01*
X144002380Y-49641666D01*
X143954761Y-49736904D01*
X143907142Y-49784523D01*
%TO.C,R16*%
X140677380Y-51205357D02*
X140201190Y-51538690D01*
X140677380Y-51776785D02*
X139677380Y-51776785D01*
X139677380Y-51395833D01*
X139725000Y-51300595D01*
X139772619Y-51252976D01*
X139867857Y-51205357D01*
X140010714Y-51205357D01*
X140105952Y-51252976D01*
X140153571Y-51300595D01*
X140201190Y-51395833D01*
X140201190Y-51776785D01*
X140677380Y-50252976D02*
X140677380Y-50824404D01*
X140677380Y-50538690D02*
X139677380Y-50538690D01*
X139820238Y-50633928D01*
X139915476Y-50729166D01*
X139963095Y-50824404D01*
X139677380Y-49395833D02*
X139677380Y-49586309D01*
X139725000Y-49681547D01*
X139772619Y-49729166D01*
X139915476Y-49824404D01*
X140105952Y-49872023D01*
X140486904Y-49872023D01*
X140582142Y-49824404D01*
X140629761Y-49776785D01*
X140677380Y-49681547D01*
X140677380Y-49491071D01*
X140629761Y-49395833D01*
X140582142Y-49348214D01*
X140486904Y-49300595D01*
X140248809Y-49300595D01*
X140153571Y-49348214D01*
X140105952Y-49395833D01*
X140058333Y-49491071D01*
X140058333Y-49681547D01*
X140105952Y-49776785D01*
X140153571Y-49824404D01*
X140248809Y-49872023D01*
%TO.C,D1*%
X153952380Y-55450595D02*
X152952380Y-55450595D01*
X152952380Y-55212500D01*
X153000000Y-55069642D01*
X153095238Y-54974404D01*
X153190476Y-54926785D01*
X153380952Y-54879166D01*
X153523809Y-54879166D01*
X153714285Y-54926785D01*
X153809523Y-54974404D01*
X153904761Y-55069642D01*
X153952380Y-55212500D01*
X153952380Y-55450595D01*
X153952380Y-53926785D02*
X153952380Y-54498214D01*
X153952380Y-54212500D02*
X152952380Y-54212500D01*
X153095238Y-54307738D01*
X153190476Y-54402976D01*
X153238095Y-54498214D01*
%TO.C,R18*%
X140677380Y-46117857D02*
X140201190Y-46451190D01*
X140677380Y-46689285D02*
X139677380Y-46689285D01*
X139677380Y-46308333D01*
X139725000Y-46213095D01*
X139772619Y-46165476D01*
X139867857Y-46117857D01*
X140010714Y-46117857D01*
X140105952Y-46165476D01*
X140153571Y-46213095D01*
X140201190Y-46308333D01*
X140201190Y-46689285D01*
X140677380Y-45165476D02*
X140677380Y-45736904D01*
X140677380Y-45451190D02*
X139677380Y-45451190D01*
X139820238Y-45546428D01*
X139915476Y-45641666D01*
X139963095Y-45736904D01*
X140105952Y-44594047D02*
X140058333Y-44689285D01*
X140010714Y-44736904D01*
X139915476Y-44784523D01*
X139867857Y-44784523D01*
X139772619Y-44736904D01*
X139725000Y-44689285D01*
X139677380Y-44594047D01*
X139677380Y-44403571D01*
X139725000Y-44308333D01*
X139772619Y-44260714D01*
X139867857Y-44213095D01*
X139915476Y-44213095D01*
X140010714Y-44260714D01*
X140058333Y-44308333D01*
X140105952Y-44403571D01*
X140105952Y-44594047D01*
X140153571Y-44689285D01*
X140201190Y-44736904D01*
X140296428Y-44784523D01*
X140486904Y-44784523D01*
X140582142Y-44736904D01*
X140629761Y-44689285D01*
X140677380Y-44594047D01*
X140677380Y-44403571D01*
X140629761Y-44308333D01*
X140582142Y-44260714D01*
X140486904Y-44213095D01*
X140296428Y-44213095D01*
X140201190Y-44260714D01*
X140153571Y-44308333D01*
X140105952Y-44403571D01*
%TO.C,R21*%
X140677380Y-46067857D02*
X140201190Y-46401190D01*
X140677380Y-46639285D02*
X139677380Y-46639285D01*
X139677380Y-46258333D01*
X139725000Y-46163095D01*
X139772619Y-46115476D01*
X139867857Y-46067857D01*
X140010714Y-46067857D01*
X140105952Y-46115476D01*
X140153571Y-46163095D01*
X140201190Y-46258333D01*
X140201190Y-46639285D01*
X139772619Y-45686904D02*
X139725000Y-45639285D01*
X139677380Y-45544047D01*
X139677380Y-45305952D01*
X139725000Y-45210714D01*
X139772619Y-45163095D01*
X139867857Y-45115476D01*
X139963095Y-45115476D01*
X140105952Y-45163095D01*
X140677380Y-45734523D01*
X140677380Y-45115476D01*
X140677380Y-44163095D02*
X140677380Y-44734523D01*
X140677380Y-44448809D02*
X139677380Y-44448809D01*
X139820238Y-44544047D01*
X139915476Y-44639285D01*
X139963095Y-44734523D01*
%TO.C,D3*%
X107327380Y-66426095D02*
X106327380Y-66426095D01*
X106327380Y-66188000D01*
X106375000Y-66045142D01*
X106470238Y-65949904D01*
X106565476Y-65902285D01*
X106755952Y-65854666D01*
X106898809Y-65854666D01*
X107089285Y-65902285D01*
X107184523Y-65949904D01*
X107279761Y-66045142D01*
X107327380Y-66188000D01*
X107327380Y-66426095D01*
X106327380Y-65521333D02*
X106327380Y-64902285D01*
X106708333Y-65235619D01*
X106708333Y-65092761D01*
X106755952Y-64997523D01*
X106803571Y-64949904D01*
X106898809Y-64902285D01*
X107136904Y-64902285D01*
X107232142Y-64949904D01*
X107279761Y-64997523D01*
X107327380Y-65092761D01*
X107327380Y-65378476D01*
X107279761Y-65473714D01*
X107232142Y-65521333D01*
X107327380Y-69497523D02*
X106327380Y-69497523D01*
X106327380Y-69259428D01*
X106375000Y-69116571D01*
X106470238Y-69021333D01*
X106565476Y-68973714D01*
X106755952Y-68926095D01*
X106898809Y-68926095D01*
X107089285Y-68973714D01*
X107184523Y-69021333D01*
X107279761Y-69116571D01*
X107327380Y-69259428D01*
X107327380Y-69497523D01*
X107422619Y-68735619D02*
X107422619Y-67973714D01*
X107279761Y-67783238D02*
X107327380Y-67640380D01*
X107327380Y-67402285D01*
X107279761Y-67307047D01*
X107232142Y-67259428D01*
X107136904Y-67211809D01*
X107041666Y-67211809D01*
X106946428Y-67259428D01*
X106898809Y-67307047D01*
X106851190Y-67402285D01*
X106803571Y-67592761D01*
X106755952Y-67688000D01*
X106708333Y-67735619D01*
X106613095Y-67783238D01*
X106517857Y-67783238D01*
X106422619Y-67735619D01*
X106375000Y-67688000D01*
X106327380Y-67592761D01*
X106327380Y-67354666D01*
X106375000Y-67211809D01*
X107279761Y-66354666D02*
X107327380Y-66449904D01*
X107327380Y-66640380D01*
X107279761Y-66735619D01*
X107232142Y-66783238D01*
X107136904Y-66830857D01*
X106851190Y-66830857D01*
X106755952Y-66783238D01*
X106708333Y-66735619D01*
X106660714Y-66640380D01*
X106660714Y-66449904D01*
X106708333Y-66354666D01*
X107327380Y-65926095D02*
X106327380Y-65926095D01*
X107327380Y-65497523D02*
X106803571Y-65497523D01*
X106708333Y-65545142D01*
X106660714Y-65640380D01*
X106660714Y-65783238D01*
X106708333Y-65878476D01*
X106755952Y-65926095D01*
X107327380Y-64878476D02*
X107279761Y-64973714D01*
X107232142Y-65021333D01*
X107136904Y-65068952D01*
X106851190Y-65068952D01*
X106755952Y-65021333D01*
X106708333Y-64973714D01*
X106660714Y-64878476D01*
X106660714Y-64735619D01*
X106708333Y-64640380D01*
X106755952Y-64592761D01*
X106851190Y-64545142D01*
X107136904Y-64545142D01*
X107232142Y-64592761D01*
X107279761Y-64640380D01*
X107327380Y-64735619D01*
X107327380Y-64878476D01*
X106660714Y-64259428D02*
X106660714Y-63878476D01*
X106327380Y-64116571D02*
X107184523Y-64116571D01*
X107279761Y-64068952D01*
X107327380Y-63973714D01*
X107327380Y-63878476D01*
X106660714Y-63688000D02*
X106660714Y-63307047D01*
X106327380Y-63545142D02*
X107184523Y-63545142D01*
X107279761Y-63497523D01*
X107327380Y-63402285D01*
X107327380Y-63307047D01*
X107327380Y-62973714D02*
X106327380Y-62973714D01*
X106946428Y-62878476D02*
X107327380Y-62592761D01*
X106660714Y-62592761D02*
X107041666Y-62973714D01*
X106660714Y-62259428D02*
X107327380Y-62021333D01*
X106660714Y-61783238D02*
X107327380Y-62021333D01*
X107565476Y-62116571D01*
X107613095Y-62164190D01*
X107660714Y-62259428D01*
X106327380Y-60100000D02*
X106565476Y-60100000D01*
X106470238Y-60338095D02*
X106565476Y-60100000D01*
X106470238Y-59861904D01*
X106755952Y-60242857D02*
X106565476Y-60100000D01*
X106755952Y-59957142D01*
%TO.C,IC5*%
D15*
X126460238Y-111799523D02*
X126460238Y-110529523D01*
X127790714Y-111678571D02*
X127730238Y-111739047D01*
X127548809Y-111799523D01*
X127427857Y-111799523D01*
X127246428Y-111739047D01*
X127125476Y-111618095D01*
X127065000Y-111497142D01*
X127004523Y-111255238D01*
X127004523Y-111073809D01*
X127065000Y-110831904D01*
X127125476Y-110710952D01*
X127246428Y-110590000D01*
X127427857Y-110529523D01*
X127548809Y-110529523D01*
X127730238Y-110590000D01*
X127790714Y-110650476D01*
X128939761Y-110529523D02*
X128335000Y-110529523D01*
X128274523Y-111134285D01*
X128335000Y-111073809D01*
X128455952Y-111013333D01*
X128758333Y-111013333D01*
X128879285Y-111073809D01*
X128939761Y-111134285D01*
X129000238Y-111255238D01*
X129000238Y-111557619D01*
X128939761Y-111678571D01*
X128879285Y-111739047D01*
X128758333Y-111799523D01*
X128455952Y-111799523D01*
X128335000Y-111739047D01*
X128274523Y-111678571D01*
%TO.C,J3*%
D14*
X126676666Y-50024380D02*
X126676666Y-50738666D01*
X126629047Y-50881523D01*
X126533809Y-50976761D01*
X126390952Y-51024380D01*
X126295714Y-51024380D01*
X127057619Y-50024380D02*
X127676666Y-50024380D01*
X127343333Y-50405333D01*
X127486190Y-50405333D01*
X127581428Y-50452952D01*
X127629047Y-50500571D01*
X127676666Y-50595809D01*
X127676666Y-50833904D01*
X127629047Y-50929142D01*
X127581428Y-50976761D01*
X127486190Y-51024380D01*
X127200476Y-51024380D01*
X127105238Y-50976761D01*
X127057619Y-50929142D01*
X122248095Y-50024380D02*
X122581428Y-51024380D01*
X122914761Y-50024380D01*
X123152857Y-50024380D02*
X123819523Y-51024380D01*
X123819523Y-50024380D02*
X123152857Y-51024380D01*
X124105238Y-50024380D02*
X124771904Y-50024380D01*
X124343333Y-51024380D01*
X125295714Y-50452952D02*
X125200476Y-50405333D01*
X125152857Y-50357714D01*
X125105238Y-50262476D01*
X125105238Y-50214857D01*
X125152857Y-50119619D01*
X125200476Y-50072000D01*
X125295714Y-50024380D01*
X125486190Y-50024380D01*
X125581428Y-50072000D01*
X125629047Y-50119619D01*
X125676666Y-50214857D01*
X125676666Y-50262476D01*
X125629047Y-50357714D01*
X125581428Y-50405333D01*
X125486190Y-50452952D01*
X125295714Y-50452952D01*
X125200476Y-50500571D01*
X125152857Y-50548190D01*
X125105238Y-50643428D01*
X125105238Y-50833904D01*
X125152857Y-50929142D01*
X125200476Y-50976761D01*
X125295714Y-51024380D01*
X125486190Y-51024380D01*
X125581428Y-50976761D01*
X125629047Y-50929142D01*
X125676666Y-50833904D01*
X125676666Y-50643428D01*
X125629047Y-50548190D01*
X125581428Y-50500571D01*
X125486190Y-50452952D01*
X126295714Y-50024380D02*
X126390952Y-50024380D01*
X126486190Y-50072000D01*
X126533809Y-50119619D01*
X126581428Y-50214857D01*
X126629047Y-50405333D01*
X126629047Y-50643428D01*
X126581428Y-50833904D01*
X126533809Y-50929142D01*
X126486190Y-50976761D01*
X126390952Y-51024380D01*
X126295714Y-51024380D01*
X126200476Y-50976761D01*
X126152857Y-50929142D01*
X126105238Y-50833904D01*
X126057619Y-50643428D01*
X126057619Y-50405333D01*
X126105238Y-50214857D01*
X126152857Y-50119619D01*
X126200476Y-50072000D01*
X126295714Y-50024380D01*
X126962380Y-50024380D02*
X127581428Y-50024380D01*
X127248095Y-50405333D01*
X127390952Y-50405333D01*
X127486190Y-50452952D01*
X127533809Y-50500571D01*
X127581428Y-50595809D01*
X127581428Y-50833904D01*
X127533809Y-50929142D01*
X127486190Y-50976761D01*
X127390952Y-51024380D01*
X127105238Y-51024380D01*
X127010000Y-50976761D01*
X126962380Y-50929142D01*
X128010000Y-50643428D02*
X128771904Y-50643428D01*
X129724285Y-50024380D02*
X129248095Y-50024380D01*
X129200476Y-50500571D01*
X129248095Y-50452952D01*
X129343333Y-50405333D01*
X129581428Y-50405333D01*
X129676666Y-50452952D01*
X129724285Y-50500571D01*
X129771904Y-50595809D01*
X129771904Y-50833904D01*
X129724285Y-50929142D01*
X129676666Y-50976761D01*
X129581428Y-51024380D01*
X129343333Y-51024380D01*
X129248095Y-50976761D01*
X129200476Y-50929142D01*
X130390952Y-50024380D02*
X130486190Y-50024380D01*
X130581428Y-50072000D01*
X130629047Y-50119619D01*
X130676666Y-50214857D01*
X130724285Y-50405333D01*
X130724285Y-50643428D01*
X130676666Y-50833904D01*
X130629047Y-50929142D01*
X130581428Y-50976761D01*
X130486190Y-51024380D01*
X130390952Y-51024380D01*
X130295714Y-50976761D01*
X130248095Y-50929142D01*
X130200476Y-50833904D01*
X130152857Y-50643428D01*
X130152857Y-50405333D01*
X130200476Y-50214857D01*
X130248095Y-50119619D01*
X130295714Y-50072000D01*
X130390952Y-50024380D01*
X131343333Y-50024380D02*
X131438571Y-50024380D01*
X131533809Y-50072000D01*
X131581428Y-50119619D01*
X131629047Y-50214857D01*
X131676666Y-50405333D01*
X131676666Y-50643428D01*
X131629047Y-50833904D01*
X131581428Y-50929142D01*
X131533809Y-50976761D01*
X131438571Y-51024380D01*
X131343333Y-51024380D01*
X131248095Y-50976761D01*
X131200476Y-50929142D01*
X131152857Y-50833904D01*
X131105238Y-50643428D01*
X131105238Y-50405333D01*
X131152857Y-50214857D01*
X131200476Y-50119619D01*
X131248095Y-50072000D01*
X131343333Y-50024380D01*
X129550000Y-48402380D02*
X129550000Y-48640476D01*
X129311904Y-48545238D02*
X129550000Y-48640476D01*
X129788095Y-48545238D01*
X129407142Y-48830952D02*
X129550000Y-48640476D01*
X129692857Y-48830952D01*
%TO.C,SW1*%
D15*
X183215047Y-36193333D02*
X183275523Y-36011904D01*
X183275523Y-35709523D01*
X183215047Y-35588571D01*
X183154571Y-35528095D01*
X183033619Y-35467619D01*
X182912666Y-35467619D01*
X182791714Y-35528095D01*
X182731238Y-35588571D01*
X182670761Y-35709523D01*
X182610285Y-35951428D01*
X182549809Y-36072380D01*
X182489333Y-36132857D01*
X182368380Y-36193333D01*
X182247428Y-36193333D01*
X182126476Y-36132857D01*
X182066000Y-36072380D01*
X182005523Y-35951428D01*
X182005523Y-35649047D01*
X182066000Y-35467619D01*
X182005523Y-35044285D02*
X183275523Y-34741904D01*
X182368380Y-34500000D01*
X183275523Y-34258095D01*
X182005523Y-33955714D01*
X183275523Y-32806666D02*
X183275523Y-33532380D01*
X183275523Y-33169523D02*
X182005523Y-33169523D01*
X182186952Y-33290476D01*
X182307904Y-33411428D01*
X182368380Y-33532380D01*
%TO.C,SW2*%
D14*
X146251356Y-109447365D02*
X146281851Y-109355880D01*
X146281851Y-109203405D01*
X146251356Y-109142415D01*
X146220861Y-109111920D01*
X146159871Y-109081425D01*
X146098881Y-109081425D01*
X146037891Y-109111920D01*
X146007396Y-109142415D01*
X145976901Y-109203405D01*
X145946406Y-109325385D01*
X145915911Y-109386375D01*
X145885416Y-109416870D01*
X145824426Y-109447365D01*
X145763436Y-109447365D01*
X145702446Y-109416870D01*
X145671951Y-109386375D01*
X145641456Y-109325385D01*
X145641456Y-109172910D01*
X145671951Y-109081425D01*
X145641456Y-108867960D02*
X146281851Y-108715485D01*
X145824426Y-108593505D01*
X146281851Y-108471525D01*
X145641456Y-108319050D01*
X145702446Y-108105585D02*
X145671951Y-108075090D01*
X145641456Y-108014100D01*
X145641456Y-107861625D01*
X145671951Y-107800635D01*
X145702446Y-107770140D01*
X145763436Y-107739645D01*
X145824426Y-107739645D01*
X145915911Y-107770140D01*
X146281851Y-108136080D01*
X146281851Y-107739645D01*
%TO.C,SW3*%
X107526356Y-105697365D02*
X107556851Y-105605880D01*
X107556851Y-105453405D01*
X107526356Y-105392415D01*
X107495861Y-105361920D01*
X107434871Y-105331425D01*
X107373881Y-105331425D01*
X107312891Y-105361920D01*
X107282396Y-105392415D01*
X107251901Y-105453405D01*
X107221406Y-105575385D01*
X107190911Y-105636375D01*
X107160416Y-105666870D01*
X107099426Y-105697365D01*
X107038436Y-105697365D01*
X106977446Y-105666870D01*
X106946951Y-105636375D01*
X106916456Y-105575385D01*
X106916456Y-105422910D01*
X106946951Y-105331425D01*
X106916456Y-105117960D02*
X107556851Y-104965485D01*
X107099426Y-104843505D01*
X107556851Y-104721525D01*
X106916456Y-104569050D01*
X106916456Y-104386080D02*
X106916456Y-103989645D01*
X107160416Y-104203110D01*
X107160416Y-104111625D01*
X107190911Y-104050635D01*
X107221406Y-104020140D01*
X107282396Y-103989645D01*
X107434871Y-103989645D01*
X107495861Y-104020140D01*
X107526356Y-104050635D01*
X107556851Y-104111625D01*
X107556851Y-104294595D01*
X107526356Y-104355585D01*
X107495861Y-104386080D01*
%TO.C,U4*%
X128188095Y-35752379D02*
X128188095Y-36561903D01*
X128235714Y-36657141D01*
X128283333Y-36704760D01*
X128378571Y-36752379D01*
X128569047Y-36752379D01*
X128664285Y-36704760D01*
X128711904Y-36657141D01*
X128759523Y-36561903D01*
X128759523Y-35752379D01*
X129664285Y-36085713D02*
X129664285Y-36752379D01*
X129426190Y-35704760D02*
X129188095Y-36419046D01*
X129807142Y-36419046D01*
X124235714Y-36752379D02*
X123902380Y-36276189D01*
X123664285Y-36752379D02*
X123664285Y-35752379D01*
X124045238Y-35752379D01*
X124140476Y-35799999D01*
X124188095Y-35847618D01*
X124235714Y-35942856D01*
X124235714Y-36085713D01*
X124188095Y-36180951D01*
X124140476Y-36228570D01*
X124045238Y-36276189D01*
X123664285Y-36276189D01*
X124664285Y-36371427D02*
X125426190Y-36371427D01*
X125807142Y-35752379D02*
X126473809Y-35752379D01*
X126045238Y-36752379D01*
X126997619Y-36180951D02*
X126902380Y-36133332D01*
X126854761Y-36085713D01*
X126807142Y-35990475D01*
X126807142Y-35942856D01*
X126854761Y-35847618D01*
X126902380Y-35799999D01*
X126997619Y-35752379D01*
X127188095Y-35752379D01*
X127283333Y-35799999D01*
X127330952Y-35847618D01*
X127378571Y-35942856D01*
X127378571Y-35990475D01*
X127330952Y-36085713D01*
X127283333Y-36133332D01*
X127188095Y-36180951D01*
X126997619Y-36180951D01*
X126902380Y-36228570D01*
X126854761Y-36276189D01*
X126807142Y-36371427D01*
X126807142Y-36561903D01*
X126854761Y-36657141D01*
X126902380Y-36704760D01*
X126997619Y-36752379D01*
X127188095Y-36752379D01*
X127283333Y-36704760D01*
X127330952Y-36657141D01*
X127378571Y-36561903D01*
X127378571Y-36371427D01*
X127330952Y-36276189D01*
X127283333Y-36228570D01*
X127188095Y-36180951D01*
X127807142Y-36228570D02*
X128140476Y-36228570D01*
X128283333Y-36752379D02*
X127807142Y-36752379D01*
X127807142Y-35752379D01*
X128283333Y-35752379D01*
X129188095Y-35752379D02*
X128711904Y-35752379D01*
X128664285Y-36228570D01*
X128711904Y-36180951D01*
X128807142Y-36133332D01*
X129045238Y-36133332D01*
X129140476Y-36180951D01*
X129188095Y-36228570D01*
X129235714Y-36323808D01*
X129235714Y-36561903D01*
X129188095Y-36657141D01*
X129140476Y-36704760D01*
X129045238Y-36752379D01*
X128807142Y-36752379D01*
X128711904Y-36704760D01*
X128664285Y-36657141D01*
X129664285Y-36657141D02*
X129711904Y-36704760D01*
X129664285Y-36752379D01*
X129616666Y-36704760D01*
X129664285Y-36657141D01*
X129664285Y-36752379D01*
X130330952Y-35752379D02*
X130426190Y-35752379D01*
X130521428Y-35799999D01*
X130569047Y-35847618D01*
X130616666Y-35942856D01*
X130664285Y-36133332D01*
X130664285Y-36371427D01*
X130616666Y-36561903D01*
X130569047Y-36657141D01*
X130521428Y-36704760D01*
X130426190Y-36752379D01*
X130330952Y-36752379D01*
X130235714Y-36704760D01*
X130188095Y-36657141D01*
X130140476Y-36561903D01*
X130092857Y-36371427D01*
X130092857Y-36133332D01*
X130140476Y-35942856D01*
X130188095Y-35847618D01*
X130235714Y-35799999D01*
X130330952Y-35752379D01*
X131092857Y-36371427D02*
X131854761Y-36371427D01*
X132521428Y-35752379D02*
X132616666Y-35752379D01*
X132711904Y-35799999D01*
X132759523Y-35847618D01*
X132807142Y-35942856D01*
X132854761Y-36133332D01*
X132854761Y-36371427D01*
X132807142Y-36561903D01*
X132759523Y-36657141D01*
X132711904Y-36704760D01*
X132616666Y-36752379D01*
X132521428Y-36752379D01*
X132426190Y-36704760D01*
X132378571Y-36657141D01*
X132330952Y-36561903D01*
X132283333Y-36371427D01*
X132283333Y-36133332D01*
X132330952Y-35942856D01*
X132378571Y-35847618D01*
X132426190Y-35799999D01*
X132521428Y-35752379D01*
X133283333Y-36657141D02*
X133330952Y-36704760D01*
X133283333Y-36752379D01*
X133235714Y-36704760D01*
X133283333Y-36657141D01*
X133283333Y-36752379D01*
X134235714Y-35752379D02*
X133759523Y-35752379D01*
X133711904Y-36228570D01*
X133759523Y-36180951D01*
X133854761Y-36133332D01*
X134092857Y-36133332D01*
X134188095Y-36180951D01*
X134235714Y-36228570D01*
X134283333Y-36323808D01*
X134283333Y-36561903D01*
X134235714Y-36657141D01*
X134188095Y-36704760D01*
X134092857Y-36752379D01*
X133854761Y-36752379D01*
X133759523Y-36704760D01*
X133711904Y-36657141D01*
X122130100Y-38002379D02*
X122130100Y-38240475D01*
X121892004Y-38145237D02*
X122130100Y-38240475D01*
X122368195Y-38145237D01*
X121987242Y-38430951D02*
X122130100Y-38240475D01*
X122272957Y-38430951D01*
X122130100Y-38002379D02*
X122130100Y-38240475D01*
X121892004Y-38145237D02*
X122130100Y-38240475D01*
X122368195Y-38145237D01*
X121987242Y-38430951D02*
X122130100Y-38240475D01*
X122272957Y-38430951D01*
%TO.C,Y1*%
D15*
X150170238Y-74044761D02*
X150170238Y-74649523D01*
X149746904Y-73379523D02*
X150170238Y-74044761D01*
X150593571Y-73379523D01*
X151682142Y-74649523D02*
X150956428Y-74649523D01*
X151319285Y-74649523D02*
X151319285Y-73379523D01*
X151198333Y-73560952D01*
X151077380Y-73681904D01*
X150956428Y-73742380D01*
%TO.C,J6*%
D14*
X107202379Y-78384553D02*
X107916665Y-78384553D01*
X108059522Y-78432172D01*
X108154760Y-78527410D01*
X108202379Y-78670267D01*
X108202379Y-78765505D01*
X107202379Y-77479791D02*
X107202379Y-77670267D01*
X107249999Y-77765505D01*
X107297618Y-77813124D01*
X107440475Y-77908362D01*
X107630951Y-77955981D01*
X108011903Y-77955981D01*
X108107141Y-77908362D01*
X108154760Y-77860743D01*
X108202379Y-77765505D01*
X108202379Y-77575029D01*
X108154760Y-77479791D01*
X108107141Y-77432172D01*
X108011903Y-77384553D01*
X107773808Y-77384553D01*
X107678570Y-77432172D01*
X107630951Y-77479791D01*
X107583332Y-77575029D01*
X107583332Y-77765505D01*
X107630951Y-77860743D01*
X107678570Y-77908362D01*
X107773808Y-77955981D01*
X109799518Y-82289795D02*
X109751899Y-82242176D01*
X109704279Y-82146938D01*
X109704279Y-81908842D01*
X109751899Y-81813604D01*
X109799518Y-81765985D01*
X109894756Y-81718366D01*
X109989994Y-81718366D01*
X110132851Y-81765985D01*
X110704279Y-82337414D01*
X110704279Y-81718366D01*
X110704279Y-80765985D02*
X110704279Y-81337414D01*
X110704279Y-81051700D02*
X109704279Y-81051700D01*
X109847137Y-81146938D01*
X109942375Y-81242176D01*
X109989994Y-81337414D01*
X109704279Y-80432652D02*
X109704279Y-79765985D01*
X110704279Y-80194557D01*
X110037613Y-78956461D02*
X110704279Y-78956461D01*
X109656660Y-79194557D02*
X110370946Y-79432652D01*
X110370946Y-78813604D01*
X109704279Y-77956461D02*
X109704279Y-78432652D01*
X110180470Y-78480271D01*
X110132851Y-78432652D01*
X110085232Y-78337414D01*
X110085232Y-78099319D01*
X110132851Y-78004080D01*
X110180470Y-77956461D01*
X110275708Y-77908842D01*
X110513803Y-77908842D01*
X110609041Y-77956461D01*
X110656660Y-78004080D01*
X110704279Y-78099319D01*
X110704279Y-78337414D01*
X110656660Y-78432652D01*
X110609041Y-78480271D01*
X109704279Y-77289795D02*
X109704279Y-77194557D01*
X109751899Y-77099319D01*
X109799518Y-77051700D01*
X109894756Y-77004080D01*
X110085232Y-76956461D01*
X110323327Y-76956461D01*
X110513803Y-77004080D01*
X110609041Y-77051700D01*
X110656660Y-77099319D01*
X110704279Y-77194557D01*
X110704279Y-77289795D01*
X110656660Y-77385033D01*
X110609041Y-77432652D01*
X110513803Y-77480271D01*
X110323327Y-77527890D01*
X110085232Y-77527890D01*
X109894756Y-77480271D01*
X109799518Y-77432652D01*
X109751899Y-77385033D01*
X109704279Y-77289795D01*
X109704279Y-76623128D02*
X109704279Y-75956461D01*
X110704279Y-76385033D01*
X110323327Y-75575509D02*
X110323327Y-74813604D01*
X109799518Y-74385033D02*
X109751899Y-74337414D01*
X109704279Y-74242176D01*
X109704279Y-74004080D01*
X109751899Y-73908842D01*
X109799518Y-73861223D01*
X109894756Y-73813604D01*
X109989994Y-73813604D01*
X110132851Y-73861223D01*
X110704279Y-74432652D01*
X110704279Y-73813604D01*
X107202379Y-78051220D02*
X107440475Y-78051220D01*
X107345237Y-78289315D02*
X107440475Y-78051220D01*
X107345237Y-77813124D01*
X107630951Y-78194077D02*
X107440475Y-78051220D01*
X107630951Y-77908362D01*
%TD*%
M02*
