%TF.GenerationSoftware,KiCad,Pcbnew,(5.1.10-1-10_14)*%
%TF.CreationDate,2021-10-15T10:29:32-04:00*%
%TF.ProjectId,main_controller,6d61696e-5f63-46f6-9e74-726f6c6c6572,rev?*%
%TF.SameCoordinates,Original*%
%TF.FileFunction,Paste,Bot*%
%TF.FilePolarity,Positive*%
%FSLAX46Y46*%
G04 Gerber Fmt 4.6, Leading zero omitted, Abs format (unit mm)*
G04 Created by KiCad (PCBNEW (5.1.10-1-10_14)) date 2021-10-15 10:29:32*
%MOMM*%
%LPD*%
G01*
G04 APERTURE LIST*
G04 APERTURE END LIST*
%TO.C,L1*%
G36*
G01*
X160705000Y-78702500D02*
X160705000Y-79047500D01*
G75*
G02*
X160557500Y-79195000I-147500J0D01*
G01*
X160262500Y-79195000D01*
G75*
G02*
X160115000Y-79047500I0J147500D01*
G01*
X160115000Y-78702500D01*
G75*
G02*
X160262500Y-78555000I147500J0D01*
G01*
X160557500Y-78555000D01*
G75*
G02*
X160705000Y-78702500I0J-147500D01*
G01*
G37*
G36*
G01*
X159735000Y-78702500D02*
X159735000Y-79047500D01*
G75*
G02*
X159587500Y-79195000I-147500J0D01*
G01*
X159292500Y-79195000D01*
G75*
G02*
X159145000Y-79047500I0J147500D01*
G01*
X159145000Y-78702500D01*
G75*
G02*
X159292500Y-78555000I147500J0D01*
G01*
X159587500Y-78555000D01*
G75*
G02*
X159735000Y-78702500I0J-147500D01*
G01*
G37*
%TD*%
%TO.C,R17*%
G36*
G01*
X127450000Y-113381250D02*
X127450000Y-112468750D01*
G75*
G02*
X127693750Y-112225000I243750J0D01*
G01*
X128181250Y-112225000D01*
G75*
G02*
X128425000Y-112468750I0J-243750D01*
G01*
X128425000Y-113381250D01*
G75*
G02*
X128181250Y-113625000I-243750J0D01*
G01*
X127693750Y-113625000D01*
G75*
G02*
X127450000Y-113381250I0J243750D01*
G01*
G37*
G36*
G01*
X125575000Y-113381250D02*
X125575000Y-112468750D01*
G75*
G02*
X125818750Y-112225000I243750J0D01*
G01*
X126306250Y-112225000D01*
G75*
G02*
X126550000Y-112468750I0J-243750D01*
G01*
X126550000Y-113381250D01*
G75*
G02*
X126306250Y-113625000I-243750J0D01*
G01*
X125818750Y-113625000D01*
G75*
G02*
X125575000Y-113381250I0J243750D01*
G01*
G37*
%TD*%
%TO.C,R10*%
G36*
G01*
X126587500Y-109618750D02*
X126587500Y-110531250D01*
G75*
G02*
X126343750Y-110775000I-243750J0D01*
G01*
X125856250Y-110775000D01*
G75*
G02*
X125612500Y-110531250I0J243750D01*
G01*
X125612500Y-109618750D01*
G75*
G02*
X125856250Y-109375000I243750J0D01*
G01*
X126343750Y-109375000D01*
G75*
G02*
X126587500Y-109618750I0J-243750D01*
G01*
G37*
G36*
G01*
X128462500Y-109618750D02*
X128462500Y-110531250D01*
G75*
G02*
X128218750Y-110775000I-243750J0D01*
G01*
X127731250Y-110775000D01*
G75*
G02*
X127487500Y-110531250I0J243750D01*
G01*
X127487500Y-109618750D01*
G75*
G02*
X127731250Y-109375000I243750J0D01*
G01*
X128218750Y-109375000D01*
G75*
G02*
X128462500Y-109618750I0J-243750D01*
G01*
G37*
%TD*%
%TO.C,C15*%
G36*
G01*
X159775000Y-74168750D02*
X159775000Y-75081250D01*
G75*
G02*
X159531250Y-75325000I-243750J0D01*
G01*
X159043750Y-75325000D01*
G75*
G02*
X158800000Y-75081250I0J243750D01*
G01*
X158800000Y-74168750D01*
G75*
G02*
X159043750Y-73925000I243750J0D01*
G01*
X159531250Y-73925000D01*
G75*
G02*
X159775000Y-74168750I0J-243750D01*
G01*
G37*
G36*
G01*
X161650000Y-74168750D02*
X161650000Y-75081250D01*
G75*
G02*
X161406250Y-75325000I-243750J0D01*
G01*
X160918750Y-75325000D01*
G75*
G02*
X160675000Y-75081250I0J243750D01*
G01*
X160675000Y-74168750D01*
G75*
G02*
X160918750Y-73925000I243750J0D01*
G01*
X161406250Y-73925000D01*
G75*
G02*
X161650000Y-74168750I0J-243750D01*
G01*
G37*
%TD*%
%TO.C,C14*%
G36*
G01*
X159762500Y-76568750D02*
X159762500Y-77481250D01*
G75*
G02*
X159518750Y-77725000I-243750J0D01*
G01*
X159031250Y-77725000D01*
G75*
G02*
X158787500Y-77481250I0J243750D01*
G01*
X158787500Y-76568750D01*
G75*
G02*
X159031250Y-76325000I243750J0D01*
G01*
X159518750Y-76325000D01*
G75*
G02*
X159762500Y-76568750I0J-243750D01*
G01*
G37*
G36*
G01*
X161637500Y-76568750D02*
X161637500Y-77481250D01*
G75*
G02*
X161393750Y-77725000I-243750J0D01*
G01*
X160906250Y-77725000D01*
G75*
G02*
X160662500Y-77481250I0J243750D01*
G01*
X160662500Y-76568750D01*
G75*
G02*
X160906250Y-76325000I243750J0D01*
G01*
X161393750Y-76325000D01*
G75*
G02*
X161637500Y-76568750I0J-243750D01*
G01*
G37*
%TD*%
%TO.C,C13*%
G36*
G01*
X173981250Y-76612500D02*
X173068750Y-76612500D01*
G75*
G02*
X172825000Y-76368750I0J243750D01*
G01*
X172825000Y-75881250D01*
G75*
G02*
X173068750Y-75637500I243750J0D01*
G01*
X173981250Y-75637500D01*
G75*
G02*
X174225000Y-75881250I0J-243750D01*
G01*
X174225000Y-76368750D01*
G75*
G02*
X173981250Y-76612500I-243750J0D01*
G01*
G37*
G36*
G01*
X173981250Y-78487500D02*
X173068750Y-78487500D01*
G75*
G02*
X172825000Y-78243750I0J243750D01*
G01*
X172825000Y-77756250D01*
G75*
G02*
X173068750Y-77512500I243750J0D01*
G01*
X173981250Y-77512500D01*
G75*
G02*
X174225000Y-77756250I0J-243750D01*
G01*
X174225000Y-78243750D01*
G75*
G02*
X173981250Y-78487500I-243750J0D01*
G01*
G37*
%TD*%
%TO.C,C12*%
G36*
G01*
X159387500Y-62506250D02*
X159387500Y-61593750D01*
G75*
G02*
X159631250Y-61350000I243750J0D01*
G01*
X160118750Y-61350000D01*
G75*
G02*
X160362500Y-61593750I0J-243750D01*
G01*
X160362500Y-62506250D01*
G75*
G02*
X160118750Y-62750000I-243750J0D01*
G01*
X159631250Y-62750000D01*
G75*
G02*
X159387500Y-62506250I0J243750D01*
G01*
G37*
G36*
G01*
X157512500Y-62506250D02*
X157512500Y-61593750D01*
G75*
G02*
X157756250Y-61350000I243750J0D01*
G01*
X158243750Y-61350000D01*
G75*
G02*
X158487500Y-61593750I0J-243750D01*
G01*
X158487500Y-62506250D01*
G75*
G02*
X158243750Y-62750000I-243750J0D01*
G01*
X157756250Y-62750000D01*
G75*
G02*
X157512500Y-62506250I0J243750D01*
G01*
G37*
%TD*%
%TO.C,C11*%
G36*
G01*
X158412500Y-72331250D02*
X158412500Y-71418750D01*
G75*
G02*
X158656250Y-71175000I243750J0D01*
G01*
X159143750Y-71175000D01*
G75*
G02*
X159387500Y-71418750I0J-243750D01*
G01*
X159387500Y-72331250D01*
G75*
G02*
X159143750Y-72575000I-243750J0D01*
G01*
X158656250Y-72575000D01*
G75*
G02*
X158412500Y-72331250I0J243750D01*
G01*
G37*
G36*
G01*
X156537500Y-72331250D02*
X156537500Y-71418750D01*
G75*
G02*
X156781250Y-71175000I243750J0D01*
G01*
X157268750Y-71175000D01*
G75*
G02*
X157512500Y-71418750I0J-243750D01*
G01*
X157512500Y-72331250D01*
G75*
G02*
X157268750Y-72575000I-243750J0D01*
G01*
X156781250Y-72575000D01*
G75*
G02*
X156537500Y-72331250I0J243750D01*
G01*
G37*
%TD*%
%TO.C,C10*%
G36*
G01*
X167368750Y-63575000D02*
X168281250Y-63575000D01*
G75*
G02*
X168525000Y-63818750I0J-243750D01*
G01*
X168525000Y-64306250D01*
G75*
G02*
X168281250Y-64550000I-243750J0D01*
G01*
X167368750Y-64550000D01*
G75*
G02*
X167125000Y-64306250I0J243750D01*
G01*
X167125000Y-63818750D01*
G75*
G02*
X167368750Y-63575000I243750J0D01*
G01*
G37*
G36*
G01*
X167368750Y-61700000D02*
X168281250Y-61700000D01*
G75*
G02*
X168525000Y-61943750I0J-243750D01*
G01*
X168525000Y-62431250D01*
G75*
G02*
X168281250Y-62675000I-243750J0D01*
G01*
X167368750Y-62675000D01*
G75*
G02*
X167125000Y-62431250I0J243750D01*
G01*
X167125000Y-61943750D01*
G75*
G02*
X167368750Y-61700000I243750J0D01*
G01*
G37*
%TD*%
%TO.C,C9*%
G36*
G01*
X170662500Y-61568750D02*
X170662500Y-62481250D01*
G75*
G02*
X170418750Y-62725000I-243750J0D01*
G01*
X169931250Y-62725000D01*
G75*
G02*
X169687500Y-62481250I0J243750D01*
G01*
X169687500Y-61568750D01*
G75*
G02*
X169931250Y-61325000I243750J0D01*
G01*
X170418750Y-61325000D01*
G75*
G02*
X170662500Y-61568750I0J-243750D01*
G01*
G37*
G36*
G01*
X172537500Y-61568750D02*
X172537500Y-62481250D01*
G75*
G02*
X172293750Y-62725000I-243750J0D01*
G01*
X171806250Y-62725000D01*
G75*
G02*
X171562500Y-62481250I0J243750D01*
G01*
X171562500Y-61568750D01*
G75*
G02*
X171806250Y-61325000I243750J0D01*
G01*
X172293750Y-61325000D01*
G75*
G02*
X172537500Y-61568750I0J-243750D01*
G01*
G37*
%TD*%
%TO.C,C8*%
G36*
G01*
X171612500Y-72818750D02*
X171612500Y-73731250D01*
G75*
G02*
X171368750Y-73975000I-243750J0D01*
G01*
X170881250Y-73975000D01*
G75*
G02*
X170637500Y-73731250I0J243750D01*
G01*
X170637500Y-72818750D01*
G75*
G02*
X170881250Y-72575000I243750J0D01*
G01*
X171368750Y-72575000D01*
G75*
G02*
X171612500Y-72818750I0J-243750D01*
G01*
G37*
G36*
G01*
X173487500Y-72818750D02*
X173487500Y-73731250D01*
G75*
G02*
X173243750Y-73975000I-243750J0D01*
G01*
X172756250Y-73975000D01*
G75*
G02*
X172512500Y-73731250I0J243750D01*
G01*
X172512500Y-72818750D01*
G75*
G02*
X172756250Y-72575000I243750J0D01*
G01*
X173243750Y-72575000D01*
G75*
G02*
X173487500Y-72818750I0J-243750D01*
G01*
G37*
%TD*%
%TO.C,C6*%
G36*
G01*
X158950000Y-64706250D02*
X158950000Y-63793750D01*
G75*
G02*
X159193750Y-63550000I243750J0D01*
G01*
X159681250Y-63550000D01*
G75*
G02*
X159925000Y-63793750I0J-243750D01*
G01*
X159925000Y-64706250D01*
G75*
G02*
X159681250Y-64950000I-243750J0D01*
G01*
X159193750Y-64950000D01*
G75*
G02*
X158950000Y-64706250I0J243750D01*
G01*
G37*
G36*
G01*
X157075000Y-64706250D02*
X157075000Y-63793750D01*
G75*
G02*
X157318750Y-63550000I243750J0D01*
G01*
X157806250Y-63550000D01*
G75*
G02*
X158050000Y-63793750I0J-243750D01*
G01*
X158050000Y-64706250D01*
G75*
G02*
X157806250Y-64950000I-243750J0D01*
G01*
X157318750Y-64950000D01*
G75*
G02*
X157075000Y-64706250I0J243750D01*
G01*
G37*
%TD*%
%TO.C,C5*%
G36*
G01*
X157881250Y-76200000D02*
X156968750Y-76200000D01*
G75*
G02*
X156725000Y-75956250I0J243750D01*
G01*
X156725000Y-75468750D01*
G75*
G02*
X156968750Y-75225000I243750J0D01*
G01*
X157881250Y-75225000D01*
G75*
G02*
X158125000Y-75468750I0J-243750D01*
G01*
X158125000Y-75956250D01*
G75*
G02*
X157881250Y-76200000I-243750J0D01*
G01*
G37*
G36*
G01*
X157881250Y-78075000D02*
X156968750Y-78075000D01*
G75*
G02*
X156725000Y-77831250I0J243750D01*
G01*
X156725000Y-77343750D01*
G75*
G02*
X156968750Y-77100000I243750J0D01*
G01*
X157881250Y-77100000D01*
G75*
G02*
X158125000Y-77343750I0J-243750D01*
G01*
X158125000Y-77831250D01*
G75*
G02*
X157881250Y-78075000I-243750J0D01*
G01*
G37*
%TD*%
%TO.C,C4*%
G36*
G01*
X163506250Y-76787500D02*
X162593750Y-76787500D01*
G75*
G02*
X162350000Y-76543750I0J243750D01*
G01*
X162350000Y-76056250D01*
G75*
G02*
X162593750Y-75812500I243750J0D01*
G01*
X163506250Y-75812500D01*
G75*
G02*
X163750000Y-76056250I0J-243750D01*
G01*
X163750000Y-76543750D01*
G75*
G02*
X163506250Y-76787500I-243750J0D01*
G01*
G37*
G36*
G01*
X163506250Y-78662500D02*
X162593750Y-78662500D01*
G75*
G02*
X162350000Y-78418750I0J243750D01*
G01*
X162350000Y-77931250D01*
G75*
G02*
X162593750Y-77687500I243750J0D01*
G01*
X163506250Y-77687500D01*
G75*
G02*
X163750000Y-77931250I0J-243750D01*
G01*
X163750000Y-78418750D01*
G75*
G02*
X163506250Y-78662500I-243750J0D01*
G01*
G37*
%TD*%
%TO.C,C3*%
G36*
G01*
X170031250Y-76762500D02*
X169118750Y-76762500D01*
G75*
G02*
X168875000Y-76518750I0J243750D01*
G01*
X168875000Y-76031250D01*
G75*
G02*
X169118750Y-75787500I243750J0D01*
G01*
X170031250Y-75787500D01*
G75*
G02*
X170275000Y-76031250I0J-243750D01*
G01*
X170275000Y-76518750D01*
G75*
G02*
X170031250Y-76762500I-243750J0D01*
G01*
G37*
G36*
G01*
X170031250Y-78637500D02*
X169118750Y-78637500D01*
G75*
G02*
X168875000Y-78393750I0J243750D01*
G01*
X168875000Y-77906250D01*
G75*
G02*
X169118750Y-77662500I243750J0D01*
G01*
X170031250Y-77662500D01*
G75*
G02*
X170275000Y-77906250I0J-243750D01*
G01*
X170275000Y-78393750D01*
G75*
G02*
X170031250Y-78637500I-243750J0D01*
G01*
G37*
%TD*%
%TO.C,C2*%
G36*
G01*
X162468750Y-63475000D02*
X163381250Y-63475000D01*
G75*
G02*
X163625000Y-63718750I0J-243750D01*
G01*
X163625000Y-64206250D01*
G75*
G02*
X163381250Y-64450000I-243750J0D01*
G01*
X162468750Y-64450000D01*
G75*
G02*
X162225000Y-64206250I0J243750D01*
G01*
X162225000Y-63718750D01*
G75*
G02*
X162468750Y-63475000I243750J0D01*
G01*
G37*
G36*
G01*
X162468750Y-61600000D02*
X163381250Y-61600000D01*
G75*
G02*
X163625000Y-61843750I0J-243750D01*
G01*
X163625000Y-62331250D01*
G75*
G02*
X163381250Y-62575000I-243750J0D01*
G01*
X162468750Y-62575000D01*
G75*
G02*
X162225000Y-62331250I0J243750D01*
G01*
X162225000Y-61843750D01*
G75*
G02*
X162468750Y-61600000I243750J0D01*
G01*
G37*
%TD*%
%TO.C,C1*%
G36*
G01*
X158450000Y-68231250D02*
X158450000Y-67318750D01*
G75*
G02*
X158693750Y-67075000I243750J0D01*
G01*
X159181250Y-67075000D01*
G75*
G02*
X159425000Y-67318750I0J-243750D01*
G01*
X159425000Y-68231250D01*
G75*
G02*
X159181250Y-68475000I-243750J0D01*
G01*
X158693750Y-68475000D01*
G75*
G02*
X158450000Y-68231250I0J243750D01*
G01*
G37*
G36*
G01*
X156575000Y-68231250D02*
X156575000Y-67318750D01*
G75*
G02*
X156818750Y-67075000I243750J0D01*
G01*
X157306250Y-67075000D01*
G75*
G02*
X157550000Y-67318750I0J-243750D01*
G01*
X157550000Y-68231250D01*
G75*
G02*
X157306250Y-68475000I-243750J0D01*
G01*
X156818750Y-68475000D01*
G75*
G02*
X156575000Y-68231250I0J243750D01*
G01*
G37*
%TD*%
%TO.C,R22*%
G36*
G01*
X161831250Y-72800000D02*
X160918750Y-72800000D01*
G75*
G02*
X160675000Y-72556250I0J243750D01*
G01*
X160675000Y-72068750D01*
G75*
G02*
X160918750Y-71825000I243750J0D01*
G01*
X161831250Y-71825000D01*
G75*
G02*
X162075000Y-72068750I0J-243750D01*
G01*
X162075000Y-72556250D01*
G75*
G02*
X161831250Y-72800000I-243750J0D01*
G01*
G37*
G36*
G01*
X161831250Y-70925000D02*
X160918750Y-70925000D01*
G75*
G02*
X160675000Y-70681250I0J243750D01*
G01*
X160675000Y-70193750D01*
G75*
G02*
X160918750Y-69950000I243750J0D01*
G01*
X161831250Y-69950000D01*
G75*
G02*
X162075000Y-70193750I0J-243750D01*
G01*
X162075000Y-70681250D01*
G75*
G02*
X161831250Y-70925000I-243750J0D01*
G01*
G37*
%TD*%
M02*
